<?xml version="1.0" encoding="utf-8"?>
<!-- Generator: Adobe Illustrator 16.0.0, SVG Export Plug-In . SVG Version: 6.00 Build 0)  -->
<!DOCTYPE svg PUBLIC "-//W3C//DTD SVG 1.1//EN" "http://www.w3.org/Graphics/SVG/1.1/DTD/svg11.dtd">
<svg version="1.1" id="Layer_1" xmlns="http://www.w3.org/2000/svg" xmlns:xlink="http://www.w3.org/1999/xlink" x="0px" y="0px"
	 width="17.259px" height="14px" viewBox="0 0 17.259 14" enable-background="new 0 0 17.259 14" xml:space="preserve">
<g>
	<path fill="#FFFFFF" d="M4.581,4.313L7.278,2.16H2.164C0.97,2.16,0,3.128,0,4.308v7.563c0,1.189,0.97,2.148,2.164,2.148h10.771
		c1.195,0,2.165-0.969,2.165-2.148V7.984l-2.154,1.722v2.159H2.16V4.313H4.581z M4.581,4.313"/>
	<path fill="#FFFFFF" d="M11.865,2.133c-3.817,0.036-7.589,3.371-7.589,7.6c1.827-1.78,3.992-3.381,7.589-3.254v2.148l5.394-4.313
		L11.865,0V2.133z M11.865,2.133"/>
</g>
</svg>
