<?xml version="1.0" encoding="utf-8"?>
<!-- Generator: Adobe Illustrator 16.0.0, SVG Export Plug-In . SVG Version: 6.00 Build 0)  -->
<!DOCTYPE svg PUBLIC "-//W3C//DTD SVG 1.1//EN" "http://www.w3.org/Graphics/SVG/1.1/DTD/svg11.dtd">
<svg version="1.1" id="Layer_1" xmlns="http://www.w3.org/2000/svg" xmlns:xlink="http://www.w3.org/1999/xlink" x="0px" y="0px"
	 width="28px" height="28px" viewBox="-1 -1 28 28" enable-background="new -1 -1 28 28" xml:space="preserve">
<g>
	<g>
		<g>
			<g>
				<path fill="#3C3C3C" d="M17.651,23.575c0,0.492-0.43,0.894-0.953,0.894c-0.525,0-0.952-0.401-0.952-0.894v-5.225
					c0-0.485,0.427-0.889,0.952-0.889c0.523,0,0.953,0.403,0.953,0.889V23.575z M14.46,23.575c0,0.492-0.421,0.894-0.955,0.894
					c-0.521,0-0.952-0.401-0.952-0.894v-5.225c0-0.485,0.429-0.889,0.952-0.889c0.533,0,0.955,0.403,0.955,0.889V23.575z
					 M11.192,23.575c0,0.492-0.431,0.894-0.961,0.894c-0.523,0-0.951-0.401-0.951-0.894v-5.225c0-0.485,0.427-0.889,0.951-0.889
					c0.531,0,0.961,0.403,0.961,0.889V23.575z M17.695,9.423c0.427-0.738,1.206-1.184,2.083-1.184l0.351,0.009l0.49-0.833
					l0.204-0.396l-0.384-0.221c-0.242-0.138-0.319-0.44-0.179-0.67c0.126-0.231,0.446-0.318,0.676-0.18l2.357,1.373
					c0.113,0.068,0.189,0.172,0.224,0.301c0.034,0.126,0.018,0.256-0.051,0.369c-0.129,0.229-0.413,0.332-0.687,0.17l-0.388-0.224
					L21.69,9.15l0.136,0.229c0.472,0.764,0.48,1.717,0.035,2.48l-0.257,0.445h-5.593L17.695,9.423z M6.875,9.423
					c0-1.39,1.125-2.524,2.513-2.524h3.208c1.392,0,2.515,1.134,2.515,2.524v2.692c-0.009,0.018-0.025,0.043-0.034,0.07H6.875V9.423
					z M22.635,12.305L22.635,12.305c0.563-0.967,0.592-2.152,0.086-3.154l0.022-0.053c0.585,0.12,1.201-0.146,1.494-0.66
					c0.189-0.319,0.239-0.687,0.147-1.048c-0.104-0.351-0.327-0.652-0.644-0.841l-2.36-1.373c-0.635-0.369-1.518-0.128-1.887,0.499
					c-0.31,0.532-0.224,1.174,0.171,1.62L19.63,7.348c-1.122,0.06-2.143,0.667-2.7,1.629l-0.928,1.595V9.423
					c0-1.879-1.526-3.407-3.406-3.407H9.387c-1.877,0-3.403,1.528-3.403,3.407v2.881H1.721v3.459H3.66l2.05,8.064
					C5.71,25.575,8.19,27,10.058,27h7.181c1.877,0,3.816-1.449,3.816-3.2l2.282-8.036h1.931v-3.459H22.635z"/>
				<path fill="#3C3C3C" d="M3.291,4.757c0.238-0.445,0.592-0.746,0.961-1.003C4.628,3.505,5.033,3.29,5.539,3.23
					c-0.25,0.446-0.592,0.746-0.96,1.012C4.2,4.491,3.797,4.698,3.291,4.757z M7.228,5.716C6.988,6.164,6.643,6.464,6.274,6.729
					C5.898,6.969,5.494,7.185,4.99,7.244c0.239-0.444,0.583-0.746,0.95-1.011C6.319,5.992,6.722,5.778,7.228,5.716z M5.588,9.998
					V9.465c0-1.81,1.26-3.327,2.96-3.731c-3.055-4.409-6.365-7.36-7.463-6.621c-1.116,0.762,0.5,5.068,3.604,9.623
					C4.99,9.175,5.289,9.596,5.588,9.998z"/>
			</g>
		</g>
	</g>
</g>
</svg>
