<?xml version="1.0" encoding="utf-8"?>
<!-- Generator: Adobe Illustrator 16.0.0, SVG Export Plug-In . SVG Version: 6.00 Build 0)  -->
<!DOCTYPE svg PUBLIC "-//W3C//DTD SVG 1.1//EN" "http://www.w3.org/Graphics/SVG/1.1/DTD/svg11.dtd">
<svg version="1.1" id="Layer_1" xmlns="http://www.w3.org/2000/svg" xmlns:xlink="http://www.w3.org/1999/xlink" x="0px" y="0px"
	 width="28px" height="28px" viewBox="-1 -1 28 28" enable-background="new -1 -1 28 28" xml:space="preserve">
<g>
	<g>
		<g>
			<rect x="4.059" y="24.233" fill="#3C3C3C" width="17.925" height="0.849"/>
			<polygon fill="#3C3C3C" points="10.342,23.643 18.884,23.643 17.268,21.221 15.824,23.389 14.378,21.221 13,23.29 11.62,21.221 
				10.176,23.389 8.728,21.221 7.118,23.643 10.005,23.643 			"/>
			<path fill="#3C3C3C" d="M10.36,7.558C10.363,7.561,10.347,7.54,10.36,7.558z M10.65,7.945c-0.048-0.076-0.103-0.146-0.159-0.217
				l-0.079-0.103l-0.04-0.056l-0.013-0.012c0.009,0.008,0.013,0.017,0.03,0.034l-0.004-0.004l-0.014-0.022
				c-0.072-0.094-0.214-0.235-0.227-0.295c-0.033-0.073-0.085-0.127-0.114-0.239C9.953,6.841,9.892,6.624,9.864,6.405
				C9.795,5.964,9.802,5.507,9.825,5.11c0.05-0.794,0.12-1.376,0.12-1.376S9.525,4.152,9.19,4.963
				C9.018,5.371,8.868,5.874,8.866,6.467c0.002,0.291,0.006,0.616,0.13,0.932c0.04,0.155,0.129,0.333,0.223,0.504
				c0.103,0.188,0.17,0.24,0.26,0.367l0.226,0.273c0.043,0.09,0.112,0.166,0.142,0.264C9.919,9,10,9.201,10.026,9.424
				c0.072,0.431,0.068,0.888,0.05,1.285c-0.055,0.795-0.131,1.371-0.131,1.371s0.426-0.409,0.764-1.221
				c0.081-0.205,0.166-0.431,0.217-0.683c0.056-0.252,0.109-0.53,0.095-0.829c0-0.294-0.035-0.619-0.153-0.935
				C10.822,8.249,10.723,8.1,10.65,7.945z"/>
			<path fill="#3C3C3C" d="M12.863,4.741C12.863,4.741,12.846,4.724,12.863,4.741z M13.15,5.126
				c-0.043-0.077-0.102-0.142-0.154-0.213l-0.081-0.107l-0.041-0.052l-0.01-0.014c0.005,0.004,0.014,0.014,0.029,0.03l-0.004-0.004
				l-0.016-0.022c-0.074-0.094-0.215-0.231-0.227-0.294c-0.035-0.069-0.082-0.129-0.116-0.24c-0.077-0.188-0.136-0.401-0.166-0.624
				c-0.064-0.441-0.056-0.893-0.037-1.295c0.049-0.795,0.118-1.375,0.118-1.375s-0.418,0.415-0.755,1.226
				c-0.173,0.405-0.321,0.909-0.326,1.504c0.004,0.292,0.009,0.616,0.132,0.932c0.038,0.154,0.127,0.334,0.226,0.504
				c0.099,0.188,0.166,0.24,0.257,0.367l0.228,0.273c0.042,0.089,0.111,0.166,0.14,0.264c0.074,0.193,0.156,0.393,0.18,0.615
				c0.074,0.437,0.069,0.889,0.052,1.286c-0.052,0.795-0.129,1.376-0.129,1.376s0.424-0.415,0.762-1.227
				c0.084-0.201,0.166-0.432,0.216-0.683c0.057-0.253,0.112-0.53,0.099-0.829c0-0.291-0.037-0.619-0.153-0.935
				C13.326,5.429,13.227,5.278,13.15,5.126z"/>
		</g>
		<g>
			<g>
				<path fill="#3C3C3C" d="M15.952,7.296C15.952,7.296,15.939,7.28,15.952,7.296z M16.461,8.147
					c-0.047-0.164-0.146-0.308-0.221-0.466c-0.044-0.077-0.104-0.141-0.155-0.214L16.004,7.36l-0.042-0.051l-0.01-0.013
					c0.006,0.004,0.015,0.013,0.029,0.03l-0.004-0.004L15.96,7.299c-0.072-0.094-0.214-0.231-0.226-0.295
					c-0.034-0.069-0.081-0.128-0.117-0.239c-0.075-0.188-0.137-0.401-0.165-0.624c-0.065-0.441-0.057-0.894-0.039-1.294
					c0.053-0.796,0.125-1.375,0.125-1.375s-0.425,0.417-0.762,1.225c-0.166,0.406-0.315,0.91-0.325,1.505
					c0.01,0.295,0.015,0.616,0.133,0.931c0.038,0.154,0.132,0.333,0.227,0.504c0.099,0.188,0.165,0.238,0.257,0.368l0.226,0.273
					c0.043,0.094,0.111,0.166,0.141,0.268c0.078,0.188,0.159,0.389,0.184,0.61c0.073,0.437,0.064,0.89,0.047,1.286
					c-0.051,0.795-0.126,1.376-0.126,1.376s0.422-0.41,0.759-1.226c0.087-0.202,0.167-0.428,0.223-0.683
					c0.051-0.253,0.107-0.531,0.095-0.825C16.614,8.788,16.574,8.463,16.461,8.147z"/>
				<path fill="#3C3C3C" d="M4.055,16.695c0.022-0.265,0.107-0.499,0.169-0.698c0.151-0.387,0.356-0.589,0.356-0.589
					s-0.035,0.273-0.047,0.66c-0.018,0.378,0.008,0.888,0.075,1.354c0.04,0.269,0.1,0.505,0.147,0.723
					c0.059,0.225,0.116,0.443,0.179,0.629c0.068,0.179,0.11,0.346,0.154,0.452c0.04,0.112,0.065,0.177,0.065,0.177
					s-0.23-0.16-0.479-0.493c-0.116-0.169-0.249-0.37-0.36-0.606c-0.105-0.253-0.186-0.525-0.233-0.776
					c-0.036-0.153-0.025-0.287-0.039-0.427C4.024,16.96,4.044,16.824,4.055,16.695z M24.684,15.017
					c-0.468,0.167-1.131,0.887-1.282,1.06l-0.011-0.178c-0.042-0.293-0.103-0.549-0.164-0.702h0.263v-0.481H2.529v0.481h0.276
					c-0.076,0.192-0.148,0.527-0.179,0.915c-0.024-0.033-0.785-0.91-1.311-1.096c-0.535-0.188-2.316,0-2.316,0v0.719
					c0,0,1.751-0.062,2.127,0.162c0.376,0.217,0.782,2.067,1.094,2.067h0.672c0.2,0.621,0.452,1.247,0.563,1.521H2.982v0.73h20.065
					v-0.73h-0.473c0.113-0.278,0.367-0.903,0.566-1.521h0.632c0.313,0,0.723-1.851,1.099-2.067C25.248,15.674,27,15.739,27,15.739
					v-0.724C27.001,15.017,25.22,14.829,24.684,15.017z"/>
			</g>
		</g>
	</g>
</g>
</svg>
