<?xml version="1.0" encoding="utf-8"?>
<!-- Generator: Adobe Illustrator 16.0.0, SVG Export Plug-In . SVG Version: 6.00 Build 0)  -->
<!DOCTYPE svg PUBLIC "-//W3C//DTD SVG 1.1//EN" "http://www.w3.org/Graphics/SVG/1.1/DTD/svg11.dtd">
<svg version="1.1" id="Layer_1" xmlns="http://www.w3.org/2000/svg" xmlns:xlink="http://www.w3.org/1999/xlink" x="0px" y="0px"
	 width="46px" height="46px" viewBox="-10 -10 46 46" enable-background="new -10 -10 46 46" xml:space="preserve">
<g>
	<path fill="#3C3C3C" d="M32.534,1.11c0-3.973-3.059-7.19-6.835-7.19c-3.777,0-6.838,3.219-6.838,7.19
		c0,3.713,2.676,6.768,6.11,7.15h1.454C29.856,7.878,32.534,4.824,32.534,1.11z"/>
	<path fill="#3C3C3C" d="M9.407,0.397c0-3.989-3.076-7.222-6.865-7.222c-3.793,0-6.866,3.233-6.866,7.222
		c0,3.729,2.688,6.799,6.137,7.183h1.458C6.718,7.196,9.407,4.127,9.407,0.397z"/>
	<path fill="#3C3C3C" d="M11.875,15.393c-0.904-2.072-2.959-5.385-4.628-6.049C6.799,9.164,6.241,9.021,5.62,8.912
		c-2-0.352-4.159-0.352-6.158,0c-0.623,0.11-1.179,0.252-1.625,0.432c-1.674,0.665-3.729,3.978-4.632,6.049
		C-7.947,18.031-9.5,21.35-9.5,22.665c0,1.314,0.551,2.232,1.762,2.232c1.036,0,1.42-0.56,2.151-1.757
		c0.081-0.132,3.03-6.102,3.03-6.263l-0.108,1.347l-1.812,8.086h2.824l0.302,4.171c0,0.978,0.602,1.771,1.347,1.771h5.089
		c0.742,0,1.346-0.793,1.346-1.771l0.304-4.171h2.821l-1.811-8.083l-0.108-1.347c0,0.162,2.947,6.128,3.03,6.262
		c0.73,1.197,1.116,1.755,2.149,1.755c1.212,0,1.762-0.918,1.762-2.231C14.579,21.35,13.028,18.031,11.875,15.393z"/>
	<path fill="#3C3C3C" d="M30.908,10.017c-0.969-0.366-2.41-0.583-3.95-0.664h-2.521c-1.54,0.079-2.985,0.297-3.95,0.664
		c-1.756,0.663-4.594,3.971-4.594,6.242c0,2.38,0,7.879,0,7.879c0,1.224,0.883,2.289,2.021,2.43c0.092,0.014,0.18,0.016,0.266,0.016
		c1.239,0,2.305-1.088,2.305-2.441l1.127,6.921c0,0.977,0.631,1.763,1.411,1.763h5.346c0.779,0,1.414-0.787,1.414-1.763l1.125-6.921
		c0,1.225,0.884,2.287,2.023,2.428c0.089,0.014,0.177,0.016,0.264,0.016c1.24,0,2.305-1.09,2.305-2.443c0,0,0-5.281,0-7.879
		C35.501,13.986,32.662,10.678,30.908,10.017z"/>
</g>
</svg>
