<?xml version="1.0" encoding="utf-8"?>
<!-- Generator: Adobe Illustrator 16.0.0, SVG Export Plug-In . SVG Version: 6.00 Build 0)  -->
<!DOCTYPE svg PUBLIC "-//W3C//DTD SVG 1.1//EN" "http://www.w3.org/Graphics/SVG/1.1/DTD/svg11.dtd">
<svg version="1.1" id="Layer_1" xmlns="http://www.w3.org/2000/svg" xmlns:xlink="http://www.w3.org/1999/xlink" x="0px" y="0px"
	 width="46px" height="46px" viewBox="-10 -10 46 46" enable-background="new -10 -10 46 46" xml:space="preserve">
<g>
	<g>
		<path fill="#A0A0A0" d="M13-3.266v17.236c0,0,1.149,0.488,1.149,1.09c0,0.303-0.095,0.571-0.291,0.771l12.203,12.187
			c3.317-3.315,5.313-7.896,5.313-12.954C31.375,4.94,23.8-3.266,13-3.266z"/>
		<path fill="#3C3C3C" d="M28.261,2.862l0.778-0.778c0.324-0.324,0.324-0.85,0-1.171l-1.343-1.341
			c-0.154-0.157-0.365-0.244-0.585-0.244s-0.429,0.087-0.587,0.244l-0.775,0.776c-2.854-2.389-6.393-3.987-10.277-4.47v-1.269
			c0-0.247-0.2-0.446-0.446-0.446h-0.644c-0.246,0-0.446-0.2-0.446-0.446v-1.352h1.919c0.514,0,0.932-0.416,0.932-0.932
			c0-0.513-0.417-0.933-0.932-0.933h-5.702c-0.515,0-0.934,0.417-0.934,0.933c0,0.515,0.417,0.932,0.934,0.932h1.917v1.352
			c0,0.246-0.2,0.446-0.446,0.446h-0.646c-0.249,0-0.447,0.2-0.447,0.446v1.267C0.711-2.905-6.887,5.462-6.889,15.61
			C-6.887,26.593,2.013,35.496,13,35.5c10.986-0.004,19.887-8.907,19.889-19.89C32.889,10.757,31.148,6.314,28.261,2.862z
			 M13,32.371C3.743,32.354-3.747,24.865-3.761,15.61C-3.747,6.354,3.743-1.136,13-1.152c9.256,0.018,16.744,7.505,16.762,16.762
			C29.744,24.865,22.256,32.354,13,32.371z"/>
		<path fill="#3C3C3C" d="M15.237,15.651c0.052-0.188,0.09-0.385,0.09-0.587c0-1.224-0.987-2.212-2.21-2.212
			c-1.22,0-2.208,0.988-2.208,2.212c0,1.218,0.989,2.207,2.208,2.207c0.206,0,0.402-0.038,0.589-0.088l9.654,8.859l0.736-0.736
			L15.237,15.651z M13.117,16.15c-0.601,0-1.089-0.489-1.089-1.086c0-0.605,0.488-1.092,1.089-1.092
			c0.603,0,1.089,0.486,1.089,1.092C14.208,15.661,13.72,16.15,13.117,16.15z"/>
	</g>
</g>
</svg>
