<?xml version="1.0" encoding="utf-8"?>
<!-- Generator: Adobe Illustrator 16.0.0, SVG Export Plug-In . SVG Version: 6.00 Build 0)  -->
<!DOCTYPE svg PUBLIC "-//W3C//DTD SVG 1.1//EN" "http://www.w3.org/Graphics/SVG/1.1/DTD/svg11.dtd">
<svg version="1.1" id="Layer_1" xmlns="http://www.w3.org/2000/svg" xmlns:xlink="http://www.w3.org/1999/xlink" x="0px" y="0px"
	 width="512px" height="512px" viewBox="-240 -240 512 512" enable-background="new -240 -240 512 512" xml:space="preserve">
<path fill="#D4323E" d="M16-240c141.375,0,256,114.617,256,256c0,141.375-114.625,256-256,256c-141.383,0-256-114.625-256-256
	C-240-125.383-125.383-240,16-240z"/>
<path fill="#FFFFFF" d="M146.485-100.209c-44.219-20.381-97.35-5.837-119.375,27.22c-0.665,0.498-1.347,1.346-2.042,2.544
	c0,0-3.243,5.855-7.518,5.93c-3.658,0.015-4.685-1.26-7.306-5.53c-20.81-35.061-75.938-50.918-121.425-29.865
	c-45.52,21.11-59.655,80.995-38.093,125.54c20.468,42.156,98.77,103.186,140.578,133.816c0,0,11.125,9.825,26.401,9.765
	c0.117,0.006,0.175,0.008,0.203,0.009c0.117,0.006,0.146,0.007,0.293,0.013c15.361,0.005,26.417-9.866,26.417-9.866
	C86.285,128.752,164.558,67.478,184.82,25.244C206.306-19.483,192.057-79.302,146.485-100.209z"/>
</svg>
