<?xml version="1.0" encoding="utf-8"?>
<!-- Generator: Adobe Illustrator 16.0.0, SVG Export Plug-In . SVG Version: 6.00 Build 0)  -->
<!DOCTYPE svg PUBLIC "-//W3C//DTD SVG 1.1//EN" "http://www.w3.org/Graphics/SVG/1.1/DTD/svg11.dtd">
<svg version="1.1" id="Layer_1" xmlns="http://www.w3.org/2000/svg" xmlns:xlink="http://www.w3.org/1999/xlink" x="0px" y="0px"
	 width="32px" height="32px" viewBox="0 0 32 32" enable-background="new 0 0 32 32" xml:space="preserve">
<g>
	<circle fill="#D4323E" cx="16" cy="16" r="16"/>
	<path fill="#FFFFFF" d="M25.036,13.915c-0.002-0.003-0.004-0.006-0.007-0.01c-0.425-0.595-1.028-0.91-1.746-0.91
		c-0.351,0-0.678,0.075-0.937,0.16l0.345-1.626c0.025-0.115-0.021-0.235-0.116-0.305c-0.095-0.07-0.223-0.109-0.325-0.05
		c-0.138,0.078-0.566,0.25-0.885,0.25l0,0c-0.043,0-0.083,0.027-0.116,0.019c-0.009-0.001-0.017,0.013-0.024,0.011
		c-0.4-0.057-0.527-0.673-0.528-0.678c-0.024-0.14-0.145-0.239-0.285-0.244c-0.337-0.012-1.095-0.136-1.314-0.454
		c-0.254-0.485,0.165-1.109,0.169-1.115c0.085-0.123,0.066-0.29-0.043-0.392c-0.182-0.167-0.537-0.603-0.479-0.892
		c0.057-0.29,0.453-0.666,0.689-0.834c0.085-0.06,0.133-0.16,0.126-0.264c-0.007-0.104-0.067-0.197-0.159-0.246
		c-0.078-0.041-1.927-1.01-3.589-1.204c-0.283-0.033-0.577-0.05-0.876-0.05c-1.412,0-2.535,0.365-2.694,0.419
		c-0.244,0.057-2.323,0.613-3.35,3.18C8.89,8.686,8.888,8.688,8.887,8.691c-0.671,1.849-0.322,3.306,0.088,4.203
		c0.119,0.259,0.249,0.487,0.376,0.683c-0.284-0.064-0.607-0.111-0.945-0.111c-0.479,0-0.914,0.096-1.291,0.284
		c-1.505,0.74-1.69,2.226-1.577,2.92C5.624,17.482,6.286,19,8.192,19c0.017,0,0.033,0,0.055,0c0.618,0,1.143-0.165,1.585-0.384
		c0.085,0.4,0.259,1.188,0.488,2.037c-0.296-0.058-0.699-0.165-1.032-0.358c-0.36-0.211-0.779-0.6-0.781-0.601
		c-0.41-0.3-0.712-0.016-0.84,0.09c-0.128,0.105-0.4,0.722,0.21,1.013c0.021,0.01,0.283,0.165,1.051,0.46
		c0.553,0.21,1.244,0.142,1.588,0.091c0.005,0.019,0.01,0.036,0.016,0.055c0.457,1.521,1.055,2.691,1.061,2.705
		C11.64,24.222,11.75,24,11.872,24c0.006,0,0.012,0,0.018,0c0.021,0,1.708,0.191,3.56,0.022l0.022,1.871c0,0-0.34-0.013-0.642,0.032
		c-0.288,0.043-0.601,0.218-0.601,0.218c-0.075,0.075-0.216,0.228-0.192,0.392c0.022,0.15,0.132,0.237,0.297,0.312
		c0.014,0,0.375,0.1,0.721,0.049c0.374-0.054,0.886-0.179,0.886-0.179c0.149-0.021,0.137-0.272,0.135-0.423l-0.026-2.034
		c0.21-0.021,0.42-0.042,0.628-0.063c0.195-0.021,0.387-0.042,0.576-0.062l0.054,2.278c0.002,0.091,0.046,0.177,0.118,0.232
		c0.053,0.04,0.508,0.163,0.813,0.151c1.005,0.109,1.257-0.501,1.216-0.66c-0.041-0.161-0.405-0.406-1.036-0.286
		c-0.21,0.054-0.52,0.171-0.52,0.171l-0.046-1.955c1.681-0.196,2.936-0.379,2.95-0.381c0.108-0.017,0.201-0.091,0.239-0.193
		c0.018-0.05,0.455-1.242,0.745-2.456c0.303,0.01,0.914-0.004,1.364-0.281c0.562-0.344,0.671-0.369,0.931-0.6
		c0.504-0.446-0.011-0.957-0.17-1.002c-0.28-0.079-0.431,0.008-0.53,0.142c-0.141,0.19-0.451,0.627-0.751,0.811
		c-0.229,0.141-0.48,0.221-0.688,0.268l0.422-1.793c0.179,0.054,0.366,0.084,0.558,0.084c0.995,0,1.816-0.728,1.852-0.758
		c0.004-0.004,0.006-0.006,0.01-0.01c0.018-0.018,0.443-0.44,0.686-1.141C25.695,16.106,25.802,15.087,25.036,13.915z"/>
</g>
</svg>
