<?xml version="1.0" encoding="utf-8"?>
<!-- Generator: Adobe Illustrator 16.0.0, SVG Export Plug-In . SVG Version: 6.00 Build 0)  -->
<!DOCTYPE svg PUBLIC "-//W3C//DTD SVG 1.1//EN" "http://www.w3.org/Graphics/SVG/1.1/DTD/svg11.dtd">
<svg version="1.1" id="Layer_1" xmlns="http://www.w3.org/2000/svg" xmlns:xlink="http://www.w3.org/1999/xlink" x="0px" y="0px"
	 width="72px" height="120px" viewBox="0 -50 72 120" enable-background="new 0 -50 72 120" xml:space="preserve">
<polygon fill="#00796B" points="72,-30 0,-30 0,-50 72,-50 66,-40 "/>
<polygon fill="#2196F3" points="72,-10 0,-10 0,-30 72,-30 66,-20 "/>
<polygon fill="#FFC107" points="72,10 0,10 0,-10 72,-10 66,0 "/>
<polygon fill="#7B1FA2" points="72,30 0,30 0,10 72,10 66,20 "/>
<polygon fill="#CDDC39" points="72,50 0,50 0,30 72,30 66,40 "/>
<polygon fill="#FF5722" points="72,70 0,70 0,50 72,50 66,60 "/>
</svg>
