<?xml version="1.0" encoding="utf-8"?>
<!-- Generator: Adobe Illustrator 16.0.0, SVG Export Plug-In . SVG Version: 6.00 Build 0)  -->
<!DOCTYPE svg PUBLIC "-//W3C//DTD SVG 1.1//EN" "http://www.w3.org/Graphics/SVG/1.1/DTD/svg11.dtd">
<svg version="1.1" id="Layer_1" xmlns="http://www.w3.org/2000/svg" xmlns:xlink="http://www.w3.org/1999/xlink" x="0px" y="0px"
	 width="29px" height="29px" viewBox="0 0 29 29" enable-background="new 0 0 29 29" xml:space="preserve">
<g>
	<path fill="#a0a0a0" d="M17.076,7.525c0.261-0.26,0.293-0.679,0.062-0.978c-1.621-2.096-3.392-2.821-4.593-3.062
		C11.23,3.223,10.302,3.461,10.2,3.489C9.806,3.599,9.574,4.007,9.683,4.402c0.109,0.395,0.518,0.626,0.913,0.517
		c0.028-0.008,2.836-0.738,5.369,2.536c0.251,0.324,0.717,0.383,1.04,0.133C17.03,7.568,17.055,7.547,17.076,7.525z"/>
	<path fill="#a0a0a0" d="M28.348,25.201l-8.682-8.045c1.313-1.829,2.023-4.016,2.023-6.312c0-2.896-1.128-5.62-3.177-7.668
		C16.465,1.128,13.741,0,10.845,0c-2.897,0-5.62,1.128-7.668,3.176S0,7.948,0,10.845c0,2.897,1.128,5.62,3.176,7.669
		c2.048,2.048,4.771,3.176,7.668,3.176c2.296,0,4.482-0.709,6.311-2.023l8.046,8.683c0.869,0.869,2.278,0.869,3.146,0
		C29.217,27.479,29.217,26.07,28.348,25.201z M4.924,16.766C1.66,13.5,1.66,8.189,4.924,4.924c3.264-3.264,8.576-3.264,11.84,0
		c3.265,3.264,3.265,8.576,0,11.841C13.5,20.029,8.188,20.029,4.924,16.766z"/>
</g>
</svg>
