<?xml version="1.0" encoding="utf-8"?>
<!-- Generator: Adobe Illustrator 16.0.0, SVG Export Plug-In . SVG Version: 6.00 Build 0)  -->
<!DOCTYPE svg PUBLIC "-//W3C//DTD SVG 1.1//EN" "http://www.w3.org/Graphics/SVG/1.1/DTD/svg11.dtd">
<svg version="1.1" id="Layer_1" xmlns="http://www.w3.org/2000/svg" xmlns:xlink="http://www.w3.org/1999/xlink" x="0px" y="0px"
	 width="20px" height="40px" viewBox="0 0 20 40" enable-background="new 0 0 20 40" xml:space="preserve">
<path fill="#BABABA" d="M19.959,7.574c-0.057-0.183-0.26-0.611-0.928-0.66L13.356,6.51c-0.114-0.008-0.306-0.154-0.349-0.264
	L10.887,0.72C10.637,0.07,10.184,0,10,0S9.363,0.07,9.113,0.72L6.992,6.246C6.95,6.355,6.758,6.502,6.644,6.51L0.969,6.914
	c-0.667,0.049-0.872,0.478-0.928,0.66S-0.092,8.23,0.421,8.68l4.364,3.821c0.087,0.075,0.161,0.312,0.133,0.427l-1.385,5.776
	c-0.115,0.476,0.016,0.785,0.145,0.959c0.281,0.376,0.808,0.447,1.289,0.131l4.818-3.163c0.07-0.047,0.361-0.047,0.43,0l4.818,3.163
	C15.241,19.931,15.449,20,15.651,20c0.267,0,0.511-0.123,0.671-0.337c0.13-0.174,0.26-0.483,0.146-0.959l-1.386-5.776
	c-0.027-0.114,0.046-0.352,0.133-0.427l4.364-3.821C20.093,8.23,20.016,7.757,19.959,7.574z"/>
<path fill="#FFC90A" d="M19.959,27.574c-0.057-0.183-0.26-0.611-0.928-0.66l-5.675-0.404c-0.114-0.008-0.306-0.154-0.349-0.264
	l-2.121-5.525C10.637,20.07,10.184,20,10,20s-0.637,0.07-0.887,0.721l-2.121,5.525c-0.042,0.109-0.234,0.256-0.348,0.264
	l-5.675,0.404c-0.667,0.049-0.872,0.478-0.928,0.66s-0.133,0.656,0.38,1.105l4.364,3.821c0.087,0.075,0.161,0.312,0.133,0.427
	l-1.385,5.776c-0.115,0.476,0.016,0.785,0.145,0.959c0.281,0.376,0.808,0.447,1.289,0.131l4.818-3.163
	c0.07-0.047,0.361-0.047,0.43,0l4.818,3.163C15.241,39.931,15.449,40,15.651,40c0.267,0,0.511-0.123,0.671-0.337
	c0.13-0.174,0.26-0.483,0.146-0.959l-1.386-5.776c-0.027-0.114,0.046-0.352,0.133-0.427l4.364-3.821
	C20.093,28.23,20.016,27.757,19.959,27.574z"/>
</svg>
