<?xml version="1.0" encoding="utf-8"?>
<!-- Generator: Adobe Illustrator 16.0.0, SVG Export Plug-In . SVG Version: 6.00 Build 0)  -->
<!DOCTYPE svg PUBLIC "-//W3C//DTD SVG 1.1//EN" "http://www.w3.org/Graphics/SVG/1.1/DTD/svg11.dtd">
<svg version="1.1" id="Layer_1" xmlns="http://www.w3.org/2000/svg" xmlns:xlink="http://www.w3.org/1999/xlink" x="0px" y="0px"
	 width="32px" height="32px" viewBox="0 0 32 32" enable-background="new 0 0 32 32" xml:space="preserve">
<g>
	<path fill="#727272" d="M5.546,24.352h-2.55V2.805C2.996,1.258,4.254,0,5.801,0h15.428v2.55H5.801
		c-0.141,0-0.255,0.114-0.255,0.255V24.352L5.546,24.352z"/>
	<path fill="#727272" d="M10.773,7.395c-0.141,0-0.255,0.114-0.255,0.255v21.545c0,0.142,0.114,0.256,0.255,0.256h15.426
		c0.141,0,0.255-0.114,0.255-0.256V7.649c0-0.141-0.114-0.255-0.255-0.255L10.773,7.395L10.773,7.395z M26.199,32H10.773
		c-1.546,0-2.805-1.258-2.805-2.805V7.649c0-1.546,1.258-2.805,2.805-2.805h15.426c1.547,0,2.805,1.258,2.805,2.805v21.546
		C29.004,30.742,27.746,32,26.199,32L26.199,32z"/>
</g>
</svg>
