<?xml version="1.0" encoding="utf-8"?>
<!-- Generator: Adobe Illustrator 16.0.0, SVG Export Plug-In . SVG Version: 6.00 Build 0)  -->
<!DOCTYPE svg PUBLIC "-//W3C//DTD SVG 1.1//EN" "http://www.w3.org/Graphics/SVG/1.1/DTD/svg11.dtd">
<svg version="1.1" id="Layer_1" xmlns="http://www.w3.org/2000/svg" xmlns:xlink="http://www.w3.org/1999/xlink" x="0px" y="0px"
	 width="207.143px" height="150px" viewBox="41.428 30 207.143 150" enable-background="new 41.428 30 207.143 150"
	 xml:space="preserve">
<path fill="#FFFFFF" d="M73.571,180h142.857c19.803-18.864,32.143-45.491,32.143-75s-12.34-56.135-32.143-75H73.572
	C53.77,48.865,41.428,75.491,41.428,105S53.769,161.136,73.571,180z"/>
<circle fill="#D4323E" cx="145" cy="103.909" r="68.951"/>
<g>
	<g>
		<path fill="#CDC3C2" d="M142.769,85.708l-23.552,13.069l2.071,6.6c0,0,1.324,6.708,3.236,13.072
			c1.97,6.572,4.528,12.813,4.528,12.813s10.763-0.646,20.576-1.685c9.727-1.028,17.727-2.2,17.727-2.2s1.977-5.356,3.224-10.646
			c1.341-5.697,2.732-11.613,2.732-11.613v-9.705L142.769,85.708z"/>
		<path fill="#442236" d="M129.051,132.553c-0.523,0-0.997-0.315-1.197-0.805c-0.027-0.062-2.604-6.375-4.572-12.931
			c-1.8-6.003-3.102-12.38-3.25-13.119l-2.05-6.537c-0.184-0.585,0.069-1.219,0.607-1.517l23.553-13.069
			c0.312-0.173,0.68-0.209,1.019-0.102l30.54,9.706c0.539,0.171,0.903,0.67,0.903,1.234v9.704c0,0.1-0.014,0.199-0.035,0.296
			l-2.732,11.614c-1.248,5.305-3.185,10.577-3.265,10.796c-0.164,0.444-0.56,0.764-1.029,0.833
			c-0.079,0.012-8.139,1.185-17.778,2.206c-9.73,1.029-20.527,1.681-20.635,1.689C129.103,132.552,129.078,132.553,129.051,132.553z
			 M120.768,99.395l1.755,5.594c0.014,0.045,0.026,0.088,0.035,0.135c0.014,0.067,1.337,6.722,3.205,12.951
			c1.507,5.024,3.382,9.909,4.143,11.834c2.821-0.181,11.571-0.77,19.583-1.62c7.876-0.836,14.683-1.771,16.911-2.085
			c0.571-1.625,1.968-5.743,2.916-9.771l2.698-11.468v-8.606l-29.105-9.25L120.768,99.395z"/>
	</g>
	<g>
		<path fill="#E4F1E1" d="M160.886,55.038c0,0-3.053,2.166-3.495,4.4c-0.465,2.356,2.458,5.046,2.458,5.046
			s-2.329,3.365-0.778,6.211c1.576,2.409,6.73,2.588,6.73,2.588s0.646,3.624,3.365,4.011c2.097,0.482,5.241-1.294,5.241-1.294
			s-0.42,1.981-0.877,4.129c-0.539,2.543-1.13,5.318-1.13,5.318s7.765-4.529,12.294,1.811c5.823,8.93-0.906,15.529-0.906,15.529
			s-4.616,4.14-9.317,2.59c-5.479-1.726-9.317-9.059-9.317-9.059s-7.635,8.411-19.928,8.799c-9.561,0.296-17.729-7.634-17.729-7.634
			s-4.013,9.448-14.105,9.707c-9.447,0.129-10.353-8.93-10.353-8.93s-1.293-7.634,6.083-11.257
			c5.694-2.847,12.939,0.776,12.939,0.776s-9.963-8.669-4.658-23.293c4.4-10.999,13.587-12.94,13.587-12.94
			s6.991-2.476,14.882-1.553C152.879,50.81,160.886,55.038,160.886,55.038z"/>
		<path fill="#442236" d="M113.195,108.483c-8.216,0-11.068-6.55-11.436-10.052c-0.488-2.989,0.307-9.405,6.794-12.592
			c1.623-0.811,3.496-1.224,5.562-1.224c1.455,0,2.849,0.203,4.074,0.481c-0.548-0.844-1.109-1.827-1.622-2.945
			c-1.768-3.865-3.269-10.144-0.378-18.11c0.004-0.013,0.01-0.025,0.015-0.04c4.425-11.062,13.385-13.459,14.434-13.706
			c0.686-0.234,5.525-1.807,11.61-1.807c1.29,0,2.559,0.072,3.777,0.214c7.162,0.836,15.131,5.01,15.466,5.187
			c0.396,0.21,0.656,0.61,0.687,1.06c0.028,0.449-0.177,0.88-0.543,1.14c-1.019,0.726-2.726,2.345-2.973,3.594
			c-0.245,1.243,1.286,3.126,2.066,3.844c0.473,0.438,0.554,1.159,0.188,1.69c-0.017,0.024-1.823,2.715-0.729,4.808
			c0.948,1.366,4.214,1.912,5.663,1.962c0.61,0.02,1.123,0.465,1.229,1.066c0.006,0.021,0.554,2.712,2.276,2.958
			c0.036,0.005,0.071,0.012,0.107,0.02c0.144,0.034,0.312,0.05,0.499,0.05c0,0,0,0,0.002,0c1.371,0,3.218-0.873,3.812-1.209
			c0.443-0.251,0.993-0.218,1.402,0.082c0.41,0.301,0.608,0.815,0.502,1.312l-1.488,7.007c1.116-0.368,2.525-0.691,4.037-0.691
			c3.091,0,5.694,1.356,7.525,3.922c0.012,0.015,0.019,0.029,0.029,0.044c3.296,5.051,2.838,9.445,1.87,12.242
			c-1.041,3.019-2.876,4.84-2.953,4.916c-0.016,0.016-0.027,0.027-0.043,0.041c-0.149,0.132-3.691,3.269-7.979,3.269
			c-0.898,0-1.776-0.14-2.607-0.414c-4.372-1.377-7.692-5.854-9.189-8.212c-2.699,2.436-9.657,7.704-19.609,8.019
			c-0.189,0.005-0.378,0.009-0.564,0.009c-7.593,0-14.14-4.66-16.823-6.878c-1.692,2.877-6.145,8.728-14.454,8.941
			C113.339,108.483,113.268,108.483,113.195,108.483z M114.116,87.204c-1.661,0-3.146,0.321-4.412,0.956
			c-6.444,3.164-5.396,9.816-5.385,9.884c0.005,0.029,0.008,0.058,0.011,0.087c0.033,0.312,0.921,7.765,8.866,7.765l0.182-0.001
			c9.139-0.233,12.895-8.831,12.932-8.917c0.166-0.392,0.518-0.678,0.935-0.761c0.417-0.084,0.851,0.042,1.157,0.339
			c0.074,0.073,7.62,7.277,16.301,7.277c0,0,0,0,0,0c0.161,0,0.323-0.003,0.484-0.008c11.565-0.366,18.939-8.296,19.011-8.377
			c0.284-0.312,0.705-0.465,1.122-0.412c0.419,0.054,0.785,0.309,0.98,0.682c0.036,0.069,3.666,6.882,8.561,8.424
			c0.585,0.193,1.191,0.288,1.815,0.288c3.129,0,5.947-2.347,6.228-2.587c0.444-0.454,5.74-6.129,0.723-13.854
			c-1.361-1.894-3.13-2.814-5.403-2.814c-2.729,0-5.147,1.378-5.173,1.392c-0.441,0.256-0.995,0.228-1.409-0.073
			c-0.413-0.3-0.611-0.816-0.505-1.315l1.483-6.992c-0.821,0.27-1.761,0.486-2.664,0.486c-0.002,0-0.002,0-0.002,0
			c-0.362,0-0.707-0.035-1.026-0.104c-2.537-0.392-3.678-2.702-4.136-4.062c-1.76-0.186-5.325-0.838-6.806-3.103
			c-0.017-0.028-0.035-0.058-0.051-0.088c-1.374-2.519-0.397-5.237,0.307-6.632c-0.994-1.122-2.557-3.298-2.123-5.496
			c0.298-1.503,1.426-2.89,2.417-3.856c-2.69-1.25-8.04-3.498-12.814-4.056c-1.119-0.13-2.288-0.197-3.477-0.197
			c-5.994,0-10.774,1.668-10.822,1.685c-0.054,0.019-0.109,0.035-0.165,0.046c-0.344,0.075-8.573,1.976-12.646,12.136
			c-4.928,13.619,4.206,21.774,4.299,21.855c0.492,0.428,0.588,1.155,0.226,1.696c-0.363,0.542-1.07,0.729-1.655,0.438
			C121.452,88.918,117.956,87.204,114.116,87.204z"/>
	</g>
	<path fill="#442236" d="M124.137,118.443c-0.27,0-4.561,0.971-7.768-0.254c-3.309-1.269-4.437-1.941-4.528-1.984
		c-2.631-1.251-1.459-3.905-0.906-4.358c0.553-0.453,1.855-1.682,3.623-0.388c0.008,0.005,1.812,1.683,3.364,2.588
		c2.593,1.513,6.182,1.81,6.218,1.81c0.001,0,0.001,0,0.002,0c0.713,0,1.292,0.577,1.293,1.292c0.001,0.714-0.576,1.294-1.291,1.295
		C124.144,118.443,124.142,118.443,124.137,118.443z"/>
	<path fill="#442236" d="M170.763,117.225c-0.616,0-1.165-0.445-1.273-1.074c-0.121-0.704,0.351-1.373,1.055-1.497
		c0.053-0.009,2.687-0.082,4.879-1.427c1.292-0.79,2.631-2.669,3.234-3.493c0.43-0.573,1.079-0.948,2.284-0.606
		c0.688,0.193,2.906,2.396,0.735,4.316c-1.122,0.992-1.591,1.102-4.011,2.586c-2.636,1.618-6.55,1.152-6.681,1.173
		C170.911,117.217,170.838,117.225,170.763,117.225z"/>
	<path fill="#442236" d="M139.664,142.321c-0.712-0.324-1.186-0.657-1.28-1.303c-0.104-0.706,0.504-1.286,0.827-1.609
		c0,0,1.348-0.596,2.589-0.777c1.303-0.191,2.768,0.177,2.768,0.177l-0.115-8.831c-0.009-0.715,0.562-1.303,1.277-1.31
		c0.713-0.017,1.301,0.562,1.312,1.276l0.128,9.964c0.01,0.647,0.06,1.734-0.58,1.829c0,0-2.208,0.542-3.818,0.777
		C141.28,142.733,139.727,142.321,139.664,142.321z"/>
	<path fill="#442236" d="M152.987,141.411c-0.313-0.237-0.503-0.608-0.511-1l-0.263-11.233c-0.018-0.715,0.548-1.308,1.263-1.323
		c0.711-0.019,1.309,0.549,1.325,1.264l0.227,9.605c0,0,1.332-0.505,2.238-0.736c2.718-0.517,4.287,0.538,4.465,1.231
		c0.177,0.689-0.906,3.316-5.241,2.845C155.176,142.115,153.215,141.584,152.987,141.411z"/>
	<path fill="#442236" d="M145.228,114.952c-0.393,0-0.754-0.256-0.87-0.653c-0.037-0.123-0.98-3.137-4.242-3.137
		c-3.216,0-4.253,2.674-4.263,2.702c-0.175,0.47-0.696,0.708-1.165,0.531c-0.469-0.175-0.708-0.697-0.532-1.166
		c0.06-0.158,1.501-3.878,5.961-3.878c3.711,0,5.535,2.905,5.981,4.441c0.14,0.481-0.137,0.986-0.618,1.124
		C145.397,114.939,145.312,114.952,145.228,114.952z"/>
	<path fill="#442236" d="M151.699,114.951c-0.1,0-0.196-0.017-0.297-0.049c-0.472-0.164-0.724-0.678-0.56-1.148
		c0.069-0.207,1.776-5.072,5.401-5.523c0.018-0.004,0.04-0.006,0.06-0.007c1.656-0.097,2.993,0.325,3.97,1.245
		c1.499,1.416,1.517,3.489,1.517,3.576c0,0.5-0.404,0.906-0.908,0.906c-0.499,0-0.905-0.406-0.905-0.906
		c0-0.01-0.025-1.4-0.959-2.271c-0.593-0.551-1.46-0.804-2.581-0.745c-2.061,0.283-3.502,3.204-3.885,4.309
		C152.426,114.718,152.075,114.951,151.699,114.951z"/>
	<path fill="#442236" d="M145.267,121.725c-0.129-1.638,1.239-1.264,2.875-1.393l0,0c1.64-0.129,2.931-0.713,3.061,0.926l0.06,0.774
		c0.129,1.639-1.095,3.072-2.734,3.201l0,0c-1.64,0.128-3.072-1.097-3.2-2.735L145.267,121.725z"/>
	<g>
		<path fill="#81D340" d="M160.886,55.038c0,0-7.523-1.828-9.835,0.776c-3.235,3.106,0.645,9.577,0.645,9.577
			s-2.717,5.176,1.166,10.74c2.576,3.784,9.318,4.658,9.318,4.658s2.549,4.129,5.821,2.847c3.884-0.906,6.406-7.636,6.406-7.636
			s-3.145,1.777-5.241,1.294c-2.718-0.389-3.365-4.012-3.365-4.012s-5.154-0.178-6.73-2.587c-1.551-2.847,0.778-6.211,0.778-6.211
			s-2.924-2.69-2.458-5.046C157.833,57.204,160.886,55.038,160.886,55.038z"/>
		<path fill="#442236" d="M166.727,84.789c-2.541,0-4.425-2.262-5.073-3.165c-1.568-0.263-7.119-1.429-9.538-4.984
			c-3.505-5.023-2.04-9.734-1.43-11.207c-0.852-1.583-3.478-7.142-0.285-10.249c1.009-1.112,2.8-1.676,5.325-1.676
			c2.671,0,5.266,0.623,5.376,0.648c0.343,0.084,0.608,0.362,0.675,0.71s-0.076,0.704-0.365,0.909
			c-0.768,0.546-2.827,2.302-3.13,3.836c-0.3,1.517,1.522,3.597,2.182,4.206c0.333,0.306,0.389,0.81,0.134,1.182
			c-0.02,0.028-1.971,2.922-0.745,5.23c1.102,1.63,4.687,2.104,5.982,2.149c0.426,0.015,0.785,0.325,0.858,0.746
			c0.006,0.028,0.573,2.985,2.602,3.274c0.024,0.004,0.05,0.009,0.074,0.015c0.175,0.039,0.372,0.059,0.587,0.059
			c1.456,0,3.385-0.909,4.004-1.259c0.331-0.189,0.746-0.147,1.035,0.1c0.287,0.248,0.393,0.649,0.26,1.006
			c-0.026,0.073-0.677,1.787-1.827,3.637c-1.594,2.565-3.329,4.094-5.159,4.546C167.767,84.693,167.247,84.789,166.727,84.789z
			 M155.726,55.32c-1.979,0-3.362,0.379-3.997,1.095c-0.016,0.018-0.031,0.035-0.05,0.052c-1.083,1.039-1.301,2.738-0.646,5.055
			c0.528,1.867,1.434,3.387,1.441,3.402c0.163,0.272,0.173,0.608,0.026,0.888c-0.101,0.191-2.396,4.781,1.104,9.801
			c2.319,3.406,8.629,4.271,8.691,4.278c0.271,0.035,0.51,0.192,0.653,0.423c0.017,0.024,1.685,2.664,3.776,2.664
			c0.315,0,0.634-0.061,0.946-0.185c0.041-0.016,0.082-0.029,0.125-0.039c1.978-0.461,3.717-2.942,4.795-4.971
			c-0.815,0.276-1.752,0.502-2.635,0.502c-0.339,0-0.66-0.033-0.956-0.098c-2.501-0.38-3.543-2.813-3.916-4.042
			c-1.587-0.142-5.305-0.71-6.771-2.954c-0.015-0.02-0.026-0.04-0.038-0.062c-1.373-2.519-0.23-5.273,0.435-6.505
			c-0.924-0.997-2.637-3.188-2.209-5.362c0.281-1.43,1.379-2.76,2.337-3.687C157.952,55.442,156.837,55.32,155.726,55.32z"/>
	</g>
	<path fill="#E8569B" d="M139.282,115.309c-1.539-0.528-3.256,0.135-3.876,1.31c-0.021,0.018-0.04,0.049-0.059,0.088
		c0,0-0.087,0.209-0.231,0.225c-0.122,0.013-0.16-0.025-0.259-0.158c-0.812-1.096-2.699-1.438-4.14-0.582
		c-1.442,0.856-1.708,2.894-0.837,4.303c0.821,1.333,3.634,3.095,5.125,3.968c0,0,0.402,0.292,0.914,0.237
		c0.002,0,0.003-0.003,0.005-0.003s0.004,0,0.007,0c0.509-0.051,0.845-0.418,0.845-0.418c1.281-1.16,3.675-3.461,4.207-4.932
		C141.546,117.79,140.869,115.849,139.282,115.309z"/>
	<path fill="#E8569B" d="M163.879,114.346c-1.506-0.616-3.258-0.052-3.944,1.083c-0.022,0.018-0.043,0.048-0.065,0.088
		c0,0-0.099,0.201-0.242,0.209c-0.122,0.007-0.158-0.034-0.252-0.173c-0.746-1.14-2.609-1.588-4.096-0.818
		c-1.489,0.771-1.873,2.79-1.087,4.246c0.745,1.376,3.448,3.299,4.888,4.259c0,0,0.386,0.312,0.896,0.288
		c0.004,0,0.006,0,0.007-0.001c0.004,0,0.005,0.001,0.009,0.001c0.513-0.023,0.868-0.369,0.868-0.369
		c1.345-1.083,3.868-3.243,4.482-4.682C165.994,116.952,165.431,114.976,163.879,114.346z"/>
	<g>
		<path fill="#D4323E" d="M133.615,80.013c0.241-0.178,0.488-0.353,0.743-0.517c2.964-1.919,6.82-2.719,6.82-2.719
			s0.048-3.591,1.333-6.599c0.19-0.447,0.412-0.876,0.645-1.29v-0.005c0,0,0.909-4.459-0.774-7.376
			c-3.494-5.823-8.743-3.776-10.482-1.681c-1.392,1.676-1.812,5.046-1.812,5.046s-3.26,0.64-5.306,2.719
			c-4.399,3.752-2.246,9.973,0.647,11.775C128.246,81.122,133.612,80.014,133.615,80.013z"/>
		<path fill="#442236" d="M129.975,81.264C129.975,81.264,129.975,81.264,129.975,81.264c-2.132,0-3.822-0.38-5.025-1.13
			c-1.927-1.2-3.356-3.814-3.557-6.502c-0.195-2.619,0.789-4.999,2.771-6.704c1.674-1.684,4.014-2.487,5.124-2.791
			c0.202-1.121,0.745-3.479,1.916-4.889c1.015-1.223,3.083-2.456,5.414-2.456c1.821,0,4.433,0.737,6.541,4.251
			c1.793,3.102,0.975,7.571,0.891,7.997c-0.017,0.104-0.053,0.207-0.104,0.297c-0.242,0.427-0.437,0.818-0.601,1.198
			c-1.2,2.811-1.259,6.222-1.259,6.256c-0.006,0.425-0.306,0.788-0.721,0.874c-0.037,0.008-3.732,0.792-6.513,2.591
			c-0.224,0.146-0.458,0.309-0.694,0.484c-0.104,0.078-0.224,0.132-0.351,0.159C133.788,80.903,132.034,81.264,129.975,81.264z
			 M136.617,58.603c-1.734,0-3.299,0.934-4.021,1.803c-1.003,1.207-1.502,3.715-1.61,4.581c-0.048,0.388-0.34,0.702-0.724,0.776
			c-0.029,0.005-3.017,0.617-4.834,2.463c-0.019,0.018-0.039,0.037-0.058,0.054c-1.989,1.697-2.278,3.773-2.17,5.216
			c0.175,2.351,1.496,4.346,2.709,5.102c0.897,0.56,2.304,0.854,4.066,0.854c1.479,0,2.797-0.208,3.272-0.292
			c0.209-0.151,0.417-0.294,0.62-0.426c2.339-1.515,5.157-2.352,6.438-2.68c0.082-1.24,0.37-3.882,1.374-6.233
			c0.171-0.401,0.372-0.808,0.613-1.242c0.122-0.707,0.65-4.291-0.694-6.619C140.281,59.768,138.557,58.603,136.617,58.603z"/>
	</g>
	<path fill="#442236" d="M129.381,85.318c-0.175,0-0.352-0.05-0.507-0.156c-0.415-0.281-0.522-0.844-0.242-1.257
		c0.087-0.13,2.179-3.194,5.234-5.172c2.34-1.515,5.158-2.352,6.439-2.68c0.082-1.24,0.37-3.882,1.374-6.233
		c1.316-3.082,3.856-5.505,3.963-5.607c0.364-0.343,0.937-0.328,1.279,0.035c0.345,0.364,0.328,0.938-0.034,1.281
		c-0.022,0.021-2.376,2.275-3.542,5.003c-1.201,2.81-1.26,6.221-1.26,6.255c-0.006,0.425-0.306,0.788-0.721,0.875
		c-0.038,0.008-3.733,0.792-6.513,2.591c-2.737,1.771-4.7,4.637-4.718,4.665C129.956,85.179,129.671,85.318,129.381,85.318z"/>
	<path fill="#442236" d="M130.087,65.779c-0.209,0-0.418-0.072-0.589-0.219c-0.063-0.054-1.576-1.36-2.409-2.912
		c-0.752-1.403-0.755-3.018-0.755-3.085c0.002-0.499,0.408-0.902,0.907-0.902c0.001,0,0.002,0,0.004,0
		c0.5,0.002,0.904,0.409,0.902,0.909c0,0.01,0.008,1.23,0.54,2.22c0.673,1.255,1.979,2.382,1.991,2.394
		c0.38,0.325,0.423,0.897,0.097,1.277C130.597,65.672,130.342,65.779,130.087,65.779z"/>
	<path fill="#442236" d="M130.535,70.15c-0.732,0-1.269-0.101-1.325-0.111c-0.492-0.095-0.812-0.57-0.717-1.062
		c0.096-0.491,0.57-0.812,1.062-0.717c0.695,0.131,2.667,0.241,3.422-0.809c0.732-1.019,0.686-3.672,0.485-5.104
		c-0.069-0.495,0.276-0.953,0.771-1.023s0.952,0.275,1.023,0.771c0.064,0.452,0.585,4.475-0.807,6.414
		C133.461,69.879,131.735,70.149,130.535,70.15z"/>
	<g>
		<path fill="#B4A4B3" d="M110.313,97.376c-0.239,0-0.479-0.094-0.656-0.282l-2.459-2.588c-0.345-0.363-0.331-0.937,0.032-1.281
			c0.362-0.344,0.937-0.33,1.28,0.033l2.459,2.589c0.344,0.362,0.329,0.936-0.033,1.28
			C110.761,97.296,110.537,97.376,110.313,97.376z"/>
		<path fill="#78B93B" d="M125.065,64.768c-0.373,0-0.723-0.231-0.854-0.604l-1.423-4.012c-0.167-0.471,0.081-0.989,0.551-1.156
			c0.47-0.168,0.989,0.079,1.156,0.55l1.424,4.011c0.167,0.471-0.08,0.989-0.551,1.157C125.268,64.75,125.165,64.768,125.065,64.768
			z"/>
		<path fill="#F3832E" d="M120.148,70.85c-0.083,0-0.166-0.011-0.25-0.035c-0.481-0.138-0.759-0.64-0.623-1.12l1.035-3.624
			c0.138-0.481,0.64-0.759,1.121-0.622c0.482,0.137,0.759,0.639,0.623,1.12l-1.036,3.623
			C120.905,70.591,120.541,70.85,120.148,70.85z"/>
		<path fill="#78B93B" d="M120.535,77.966c-0.196,0-0.395-0.064-0.561-0.193l-2.458-1.941c-0.393-0.311-0.46-0.88-0.15-1.273
			c0.311-0.392,0.879-0.459,1.272-0.149l2.459,1.941c0.393,0.311,0.459,0.88,0.15,1.272
			C121.067,77.849,120.803,77.966,120.535,77.966z"/>
		<path fill="#B4A4B3" d="M126.748,91.943c-0.332,0-0.651-0.184-0.811-0.501c-0.224-0.447-0.042-0.992,0.405-1.216l2.847-1.422
			c0.446-0.225,0.99-0.043,1.215,0.404c0.224,0.447,0.042,0.992-0.404,1.215l-2.847,1.424
			C127.023,91.913,126.885,91.943,126.748,91.943z"/>
		<path fill="#EBE876" d="M124.935,85.084c-0.243,0-0.485-0.095-0.663-0.287l-1.812-1.941c-0.341-0.366-0.321-0.938,0.044-1.28
			c0.366-0.341,0.939-0.321,1.28,0.044l1.812,1.941c0.342,0.366,0.322,0.938-0.044,1.28
			C125.378,85.004,125.157,85.084,124.935,85.084z"/>
		<path fill="#29A5C5" d="M135.159,87.285c-0.241,0-0.482-0.095-0.661-0.285l-2.07-2.2c-0.343-0.365-0.326-0.937,0.039-1.28
			c0.364-0.343,0.937-0.327,1.281,0.039l2.07,2.2c0.343,0.364,0.326,0.937-0.039,1.28C135.604,87.203,135.381,87.285,135.159,87.285
			z"/>
		<path fill="#29A5C5" d="M130.499,96.86c-0.418,0-0.792-0.291-0.884-0.714c-0.106-0.488,0.205-0.971,0.693-1.077l2.976-0.646
			c0.489-0.107,0.972,0.205,1.078,0.693c0.106,0.488-0.204,0.97-0.693,1.076l-2.977,0.647
			C130.627,96.853,130.562,96.86,130.499,96.86z"/>
		<path fill="#F3832E" d="M136.841,96.083c-0.194,0-0.388-0.061-0.553-0.189l-2.847-2.2c-0.396-0.307-0.47-0.876-0.163-1.271
			c0.305-0.397,0.874-0.468,1.27-0.162l2.847,2.2c0.396,0.305,0.469,0.874,0.163,1.27C137.378,95.962,137.111,96.083,136.841,96.083
			z"/>
		<path fill="#EBE876" d="M141.112,96.083c-0.327,0-0.645-0.178-0.805-0.489c-0.23-0.444-0.058-0.991,0.386-1.221l3.494-1.812
			c0.445-0.23,0.991-0.057,1.221,0.387c0.23,0.443,0.057,0.99-0.387,1.22l-3.495,1.812
			C141.395,96.051,141.251,96.083,141.112,96.083z"/>
		<path fill="#B4A4B3" d="M147.971,96.342c-0.332,0-0.653-0.185-0.812-0.501c-0.224-0.446-0.043-0.991,0.405-1.215l3.622-1.813
			c0.446-0.224,0.992-0.042,1.215,0.406c0.225,0.446,0.044,0.992-0.404,1.215l-3.621,1.812
			C148.244,96.311,148.106,96.342,147.971,96.342z"/>
		<path fill="#78B93B" d="M148.1,101.777h-3.752c-0.501,0-0.906-0.405-0.906-0.906c0-0.502,0.405-0.907,0.906-0.907h3.752
			c0.5,0,0.905,0.405,0.905,0.907C149.004,101.371,148.6,101.777,148.1,101.777z"/>
		<path fill="#EBE876" d="M157.804,97.376c-0.473,0-0.872-0.367-0.902-0.844l-0.26-3.884c-0.033-0.499,0.344-0.93,0.845-0.964
			c0.496-0.036,0.931,0.344,0.963,0.844l0.259,3.883c0.034,0.5-0.344,0.931-0.844,0.964
			C157.843,97.376,157.824,97.376,157.804,97.376z"/>
		<path fill="#F3832E" d="M163.11,92.718c-0.257,0-0.51-0.108-0.69-0.319l-2.199-2.587c-0.325-0.381-0.279-0.953,0.104-1.277
			c0.381-0.324,0.952-0.277,1.276,0.104l2.199,2.588c0.324,0.381,0.277,0.954-0.104,1.278
			C163.526,92.648,163.318,92.718,163.11,92.718z"/>
		<path fill="#78B93B" d="M165.052,88.061c-0.066,0-0.136-0.008-0.204-0.023l-1.683-0.389c-0.488-0.112-0.792-0.6-0.679-1.086
			c0.11-0.487,0.599-0.792,1.086-0.678l1.684,0.388c0.487,0.112,0.791,0.599,0.678,1.086
			C165.837,87.777,165.463,88.061,165.052,88.061z"/>
		<path fill="#9F9AA5" d="M170.485,92.202c-0.223,0-0.443-0.082-0.618-0.245l-2.07-1.941c-0.366-0.342-0.385-0.915-0.043-1.28
			c0.342-0.364,0.917-0.383,1.279-0.041l2.071,1.94c0.365,0.342,0.385,0.917,0.042,1.28
			C170.967,92.106,170.728,92.202,170.485,92.202z"/>
		<path fill="#29A5C5" d="M170.487,96.732c-0.285,0-0.566-0.137-0.744-0.388c-0.285-0.411-0.188-0.975,0.224-1.262l1.295-0.905
			c0.408-0.287,0.973-0.188,1.259,0.222c0.289,0.41,0.189,0.975-0.221,1.262l-1.295,0.906
			C170.849,96.678,170.667,96.732,170.487,96.732z"/>
		<path fill="#EBE876" d="M177.604,93.366c-0.159,0-0.319-0.042-0.468-0.128l-3.883-2.329c-0.429-0.257-0.567-0.814-0.31-1.243
			c0.259-0.429,0.814-0.568,1.241-0.311l3.884,2.329c0.43,0.258,0.568,0.814,0.311,1.243C178.21,93.21,177.91,93.366,177.604,93.366
			z"/>
		<path fill="#F3832E" d="M180.71,90.909c-0.039,0-0.078-0.004-0.118-0.009l-2.977-0.388c-0.497-0.065-0.848-0.52-0.782-1.016
			c0.064-0.497,0.521-0.845,1.015-0.781l2.978,0.389c0.496,0.064,0.847,0.519,0.781,1.015
			C181.548,90.575,181.158,90.909,180.71,90.909z"/>
		<path fill="#78B93B" d="M178.251,96.342c-0.272,0-0.542-0.123-0.72-0.356c-0.305-0.398-0.228-0.965,0.168-1.27l2.201-1.683
			c0.396-0.304,0.964-0.227,1.268,0.169c0.306,0.398,0.229,0.966-0.168,1.271l-2.198,1.683
			C178.635,96.282,178.443,96.342,178.251,96.342z"/>
		<path fill="#B4A4B3" d="M180.45,99.836c-0.288,0-0.573-0.139-0.749-0.395c-0.282-0.414-0.177-0.978,0.236-1.258l2.458-1.683
			c0.414-0.281,0.978-0.177,1.261,0.237c0.283,0.412,0.177,0.975-0.235,1.258l-2.458,1.682
			C180.806,99.784,180.626,99.836,180.45,99.836z"/>
		<path fill="#F3832E" d="M173.203,100.741c-0.352,0-0.685-0.207-0.832-0.549c-0.197-0.46,0.016-0.993,0.474-1.19l2.719-1.164
			c0.46-0.196,0.993,0.018,1.19,0.475c0.195,0.461-0.018,0.993-0.476,1.19l-2.719,1.165
			C173.442,100.718,173.323,100.741,173.203,100.741z"/>
		<path fill="#B4A4B3" d="M153.792,86.509c-0.45,0-0.841-0.335-0.897-0.794c-0.062-0.497,0.29-0.95,0.786-1.012l3.106-0.388
			c0.497-0.06,0.948,0.291,1.011,0.786c0.062,0.497-0.29,0.95-0.786,1.012l-3.106,0.389
			C153.868,86.505,153.828,86.509,153.792,86.509z"/>
		<path fill="#29A5C5" d="M149.522,89.613c-0.308,0-0.608-0.157-0.778-0.439c-0.258-0.43-0.119-0.986,0.312-1.243l1.94-1.165
			c0.43-0.258,0.985-0.12,1.241,0.31c0.258,0.43,0.119,0.986-0.31,1.243l-1.941,1.165C149.842,89.572,149.684,89.613,149.522,89.613
			z"/>
		<path fill="#F3832E" d="M145.64,86.379c-0.274,0-0.547-0.125-0.724-0.363c-0.3-0.4-0.219-0.966,0.181-1.269l2.589-1.941
			c0.399-0.299,0.966-0.219,1.268,0.182c0.3,0.4,0.22,0.967-0.182,1.268l-2.588,1.941C146.021,86.319,145.83,86.379,145.64,86.379z"
			/>
		<path fill="#78B93B" d="M142.922,81.72c-0.21,0-0.424-0.073-0.596-0.224c-0.376-0.329-0.414-0.902-0.085-1.278l1.812-2.07
			c0.33-0.377,0.901-0.416,1.278-0.086c0.377,0.329,0.415,0.901,0.085,1.278l-1.812,2.071
			C143.425,81.615,143.173,81.72,142.922,81.72z"/>
		<path fill="#EBE876" d="M152.757,81.849c-0.159,0-0.323-0.042-0.469-0.132l-2.979-1.812c-0.429-0.261-0.562-0.818-0.301-1.245
			c0.261-0.427,0.817-0.563,1.242-0.303l2.977,1.813c0.43,0.26,0.564,0.817,0.302,1.244
			C153.361,81.694,153.062,81.849,152.757,81.849z"/>
		<path fill="#CCB0A4" d="M146.935,75.12c-0.277,0-0.552-0.127-0.729-0.369l-1.813-2.459c-0.296-0.402-0.211-0.97,0.191-1.267
			c0.403-0.297,0.97-0.211,1.269,0.191l1.811,2.459c0.296,0.402,0.211,0.97-0.192,1.268C147.31,75.063,147.122,75.12,146.935,75.12z
			"/>
		<path fill="#78B93B" d="M147.581,68.262c-0.303,0-0.6-0.153-0.771-0.431c-0.262-0.426-0.13-0.984,0.298-1.246l1.682-1.036
			c0.426-0.262,0.983-0.13,1.245,0.297c0.261,0.426,0.127,0.983-0.298,1.246l-1.684,1.036
			C147.907,68.219,147.742,68.262,147.581,68.262z"/>
		<path fill="#29A5C5" d="M146.548,61.403c-0.038,0-0.076-0.003-0.115-0.007c-0.495-0.062-0.848-0.515-0.785-1.011l0.26-2.071
			c0.062-0.496,0.517-0.847,1.012-0.787c0.496,0.061,0.85,0.515,0.784,1.011l-0.258,2.07
			C147.388,61.068,146.997,61.403,146.548,61.403z"/>
		<path fill="#F3832E" d="M144.995,56.486c-0.293,0-0.58-0.142-0.756-0.403c-0.278-0.417-0.165-0.979,0.251-1.256l2.329-1.552
			c0.416-0.278,0.979-0.165,1.257,0.251c0.276,0.416,0.165,0.978-0.253,1.255l-2.329,1.553
			C145.342,56.437,145.166,56.486,144.995,56.486z"/>
		<path fill="#EBE876" d="M137.874,55.063c-0.433,0-0.815-0.312-0.892-0.752c-0.086-0.493,0.246-0.962,0.739-1.046l3.752-0.647
			c0.492-0.085,0.961,0.245,1.046,0.739c0.085,0.493-0.245,0.962-0.739,1.046l-3.753,0.647
			C137.978,55.058,137.926,55.063,137.874,55.063z"/>
		<path fill="#B4A4B3" d="M130.5,57.392c-0.12,0-0.241-0.024-0.356-0.073c-0.459-0.197-0.673-0.729-0.475-1.189l0.776-1.812
			c0.196-0.461,0.729-0.673,1.189-0.476c0.461,0.197,0.673,0.729,0.476,1.189l-0.776,1.812
			C131.186,57.185,130.85,57.392,130.5,57.392z"/>
		<path fill="#78B93B" d="M123.254,98.411c-0.024,0-0.049,0-0.073-0.003l-3.236-0.258c-0.498-0.041-0.87-0.476-0.83-0.975
			c0.04-0.5,0.476-0.871,0.975-0.832l3.236,0.26c0.499,0.041,0.872,0.475,0.831,0.975C124.118,98.052,123.722,98.411,123.254,98.411
			z"/>
		<path fill="#EBE876" d="M111.996,102.423c-0.28,0-0.557-0.13-0.734-0.374c-0.294-0.406-0.203-0.972,0.202-1.267l3.753-2.716
			c0.404-0.295,0.97-0.203,1.265,0.202c0.293,0.404,0.204,0.971-0.202,1.265l-3.753,2.717
			C112.366,102.367,112.181,102.423,111.996,102.423z"/>
		<path fill="#29A5C5" d="M118.466,102.812c-0.343,0-0.67-0.194-0.824-0.526c-0.209-0.455-0.011-0.994,0.443-1.203l1.682-0.776
			c0.454-0.21,0.992-0.013,1.203,0.442c0.21,0.454,0.012,0.993-0.443,1.203l-1.682,0.777
			C118.721,102.785,118.592,102.812,118.466,102.812z"/>
		<path fill="#AEAAAB" d="M140.723,87.543c-0.216,0-0.432-0.077-0.604-0.23l-2.458-2.2c-0.372-0.333-0.403-0.906-0.07-1.279
			c0.333-0.372,0.907-0.403,1.279-0.071l2.458,2.201c0.374,0.333,0.405,0.907,0.072,1.279
			C141.219,87.441,140.971,87.543,140.723,87.543z"/>
		<path fill="#F3832E" d="M114.582,93.883c-0.422,0-0.8-0.297-0.887-0.728c-0.098-0.491,0.221-0.967,0.71-1.065l3.882-0.777
			c0.492-0.098,0.967,0.22,1.066,0.71c0.098,0.492-0.221,0.969-0.71,1.066l-3.881,0.776C114.7,93.879,114.641,93.883,114.582,93.883
			z"/>
	</g>
</g>
<polygon fill="#442236" points="219.578,135.59 70.421,135.59 77.858,149.962 70.421,164.334 219.578,164.334 212.141,150.629 "/>
<g>
	<path fill="#FFFFFF" d="M95.404,156.811c-1.015,1.015-2.503,1.558-4.25,1.558h-5.762v-16.812h5.762c1.748,0,3.235,0.542,4.25,1.559
		c1.748,1.746,1.652,4.32,1.652,6.657C97.056,152.11,97.152,155.062,95.404,156.811z M94.153,144.388
		c-0.874-0.896-2.007-1.228-3.306-1.228h-3.66v13.603h3.66c1.299,0,2.433-0.332,3.306-1.23c1.157-1.204,1.109-3.708,1.109-5.761
		S95.31,145.594,94.153,144.388z"/>
	<path fill="#FFFFFF" d="M107.257,157.188c-0.803,0.803-1.912,1.323-3.331,1.323c-1.416,0-2.526-0.521-3.33-1.323
		c-1.18-1.203-1.417-2.835-1.417-4.628c0-1.794,0.236-3.424,1.417-4.629c0.803-0.803,1.914-1.322,3.33-1.322
		c1.417,0,2.528,0.52,3.331,1.322c1.181,1.204,1.417,2.836,1.417,4.629C108.674,154.354,108.438,155.985,107.257,157.188z
		 M106.053,148.971c-0.543-0.543-1.299-0.852-2.126-0.852c-0.826,0-1.558,0.308-2.101,0.852c-0.851,0.849-0.944,2.288-0.944,3.587
		c0,1.302,0.095,2.741,0.944,3.591c0.543,0.543,1.275,0.851,2.101,0.851c0.828,0,1.583-0.307,2.126-0.851
		c0.85-0.85,0.921-2.289,0.921-3.591C106.975,151.259,106.904,149.819,106.053,148.971z"/>
	<path fill="#FFFFFF" d="M115.64,158.51c-2.928,0-5.148-1.983-5.148-5.952c0-3.966,2.219-5.949,5.148-5.949
		c1.605,0,2.621,0.426,3.825,1.726l-1.157,1.086c-0.873-0.968-1.558-1.3-2.667-1.3c-1.133,0-2.079,0.449-2.692,1.323
		c-0.543,0.757-0.756,1.652-0.756,3.117s0.212,2.362,0.756,3.119c0.614,0.873,1.559,1.322,2.692,1.322
		c1.11,0,1.794-0.356,2.667-1.322l1.157,1.107C118.261,158.086,117.245,158.51,115.64,158.51z"/>
	<path fill="#FFFFFF" d="M122.224,153.006c0,2.553,1.206,4.016,3.424,4.016c1.346,0,2.125-0.401,3.046-1.322l1.157,1.017
		c-1.181,1.18-2.267,1.796-4.25,1.796c-3.069,0-5.077-1.841-5.077-5.949c0-3.755,1.819-5.952,4.771-5.952
		c2.998,0,4.77,2.175,4.77,5.62v0.78h-7.84V153.006L122.224,153.006z M128.008,149.796c-0.449-1.062-1.488-1.747-2.715-1.747
		c-1.228,0-2.267,0.685-2.715,1.747c-0.259,0.638-0.307,0.992-0.354,1.935h6.14C128.316,150.788,128.269,150.434,128.008,149.796z"
		/>
	<path fill="#FFFFFF" d="M138.045,158.51c-1.653,0-3.165-0.613-4.297-1.746c-1.582-1.584-1.582-3.237-1.582-6.802
		c0-3.565,0-5.218,1.582-6.8c1.133-1.134,2.644-1.748,4.297-1.748c3.022,0,5.266,1.841,5.833,5.006h-1.843
		c-0.448-2.054-1.888-3.4-3.99-3.4c-1.11,0-2.172,0.426-2.905,1.18c-1.063,1.087-1.181,2.244-1.181,5.761
		c0,3.521,0.119,4.678,1.181,5.764c0.732,0.754,1.795,1.18,2.905,1.18c2.102,0,3.59-1.345,4.038-3.398h1.795
		C143.334,156.669,141.042,158.51,138.045,158.51z"/>
	<path fill="#FFFFFF" d="M153.818,157.188c-0.804,0.803-1.913,1.323-3.331,1.323c-1.414,0-2.526-0.521-3.329-1.323
		c-1.181-1.203-1.416-2.835-1.416-4.628c0-1.794,0.235-3.424,1.416-4.629c0.803-0.803,1.913-1.322,3.329-1.322
		c1.418,0,2.528,0.52,3.331,1.322c1.18,1.204,1.415,2.836,1.415,4.629S154.998,155.985,153.818,157.188z M152.613,148.971
		c-0.542-0.543-1.299-0.852-2.125-0.852c-0.827,0-1.56,0.308-2.102,0.852c-0.85,0.849-0.944,2.288-0.944,3.587
		c0,1.302,0.095,2.741,0.944,3.591c0.543,0.543,1.274,0.851,2.102,0.851c0.826,0,1.583-0.307,2.125-0.851
		c0.852-0.85,0.923-2.289,0.923-3.591C153.535,151.259,153.464,149.819,152.613,148.971z"/>
	<path fill="#FFFFFF" d="M156.743,158.368v-1.464l6.473-8.644h-6.118v-1.512h8.076v1.441l-6.494,8.665h6.494v1.513H156.743z"/>
	<path fill="#FFFFFF" d="M167.253,143.444v-1.912h1.913v1.912H167.253z M167.348,158.368V146.75h1.699v11.618H167.348
		L167.348,158.368z"/>
	<path fill="#FFFFFF" d="M179.578,158.368v-7.157c0-2.053-1.11-3.092-2.857-3.092s-2.881,1.062-2.881,3.092v7.157h-1.699V146.75
		h1.699v1.274c0.827-0.944,1.961-1.416,3.26-1.416c1.25,0,2.267,0.378,2.977,1.086c0.824,0.804,1.204,1.89,1.204,3.235v7.439
		L179.578,158.368L179.578,158.368z"/>
	<path fill="#FFFFFF" d="M191.669,158.368v-7.179c0-2.031-1.087-3.07-2.834-3.07c-1.748,0-2.904,1.062-2.904,3.07v7.179h-1.701
		v-16.812h1.701v6.469c0.85-0.968,1.959-1.416,3.259-1.416c2.622,0,4.18,1.677,4.18,4.299v7.461L191.669,158.368L191.669,158.368z"
		/>
	<path fill="#FFFFFF" d="M202.908,158.368v-1.109c-0.945,0.943-1.798,1.251-3.354,1.251c-1.605,0-2.551-0.308-3.283-1.062
		c-0.566-0.566-0.874-1.441-0.874-2.359c0-2.032,1.417-3.355,4.016-3.355h3.496v-1.109c0-1.699-0.85-2.55-2.978-2.55
		c-1.487,0-2.244,0.354-2.928,1.322l-1.157-1.063c1.038-1.345,2.218-1.726,4.108-1.726c3.117,0,4.653,1.348,4.653,3.875v7.887
		H202.908L202.908,158.368z M202.908,153.006h-3.261c-1.748,0-2.598,0.711-2.598,2.057s0.827,1.982,2.667,1.982
		c0.994,0,1.866-0.069,2.599-0.779c0.4-0.378,0.588-1.041,0.588-2.008v-1.252H202.908L202.908,153.006z"/>
</g>
</svg>
