<?xml version="1.0" encoding="utf-8"?>
<!-- Generator: Adobe Illustrator 16.0.0, SVG Export Plug-In . SVG Version: 6.00 Build 0)  -->
<!DOCTYPE svg PUBLIC "-//W3C//DTD SVG 1.1//EN" "http://www.w3.org/Graphics/SVG/1.1/DTD/svg11.dtd">
<svg version="1.1" id="Layer_1" xmlns="http://www.w3.org/2000/svg" xmlns:xlink="http://www.w3.org/1999/xlink" x="0px" y="0px"
	 width="250px" height="250px" viewBox="0 0 250 250" enable-background="new 0 0 250 250" xml:space="preserve">
<rect fill="#D4323E" width="250" height="250"/>
<g>
	<g>
		<path fill="#CDC3C2" d="M120.839,106.688l-43.896,24.359l3.861,12.3c0,0,2.466,12.503,6.03,24.365
			c3.673,12.249,8.44,23.88,8.44,23.88s20.06-1.203,38.35-3.14c18.129-1.916,33.04-4.101,33.04-4.101s3.686-9.981,6.01-19.843
			c2.499-10.617,5.091-21.645,5.091-21.645v-18.088L120.839,106.688z"/>
		<path fill="#442236" d="M95.271,193.997c-0.976,0-1.859-0.586-2.232-1.499c-0.049-0.116-4.853-11.882-8.52-24.102
			c-3.356-11.188-5.782-23.073-6.057-24.45l-3.822-12.185c-0.342-1.09,0.129-2.272,1.132-2.826l43.898-24.358
			c0.583-0.323,1.267-0.39,1.9-0.191l56.921,18.092c1.005,0.317,1.682,1.249,1.682,2.299v18.087c0,0.186-0.024,0.371-0.064,0.552
			l-5.092,21.646c-2.325,9.887-5.937,19.712-6.086,20.121c-0.304,0.828-1.043,1.424-1.917,1.553
			c-0.146,0.022-15.171,2.208-33.135,4.11c-18.135,1.918-38.26,3.134-38.46,3.148C95.368,193.996,95.322,193.997,95.271,193.997z
			 M79.833,132.198l3.271,10.426c0.027,0.084,0.049,0.164,0.065,0.252c0.026,0.125,2.492,12.527,5.974,24.139
			c2.809,9.364,6.303,18.469,7.723,22.057c5.256-0.337,21.565-1.437,36.5-3.021c14.68-1.558,27.366-3.301,31.518-3.886
			c1.064-3.028,3.669-10.704,5.435-18.21l5.028-21.375v-16.04l-54.245-17.24L79.833,132.198z"/>
	</g>
	<g>
		<path fill="#E4F1E1" d="M154.606,49.525c0,0-5.689,4.037-6.515,8.201c-0.866,4.391,4.581,9.405,4.581,9.405
			s-4.341,6.272-1.45,11.576c2.938,4.49,12.544,4.824,12.544,4.824s1.203,6.755,6.271,7.476c3.909,0.897,9.77-2.412,9.77-2.412
			s-0.785,3.691-1.637,7.695c-1.002,4.74-2.105,9.913-2.105,9.913s14.474-8.442,22.914,3.375
			c10.853,16.643-1.688,28.943-1.688,28.943s-8.604,7.717-17.366,4.827c-10.211-3.217-17.366-16.883-17.366-16.883
			s-14.229,15.675-37.142,16.399c-17.819,0.552-33.042-14.229-33.042-14.229s-7.481,17.611-26.29,18.092
			c-17.608,0.24-19.295-16.644-19.295-16.644s-2.41-14.228,11.338-20.98c10.611-5.306,24.115,1.447,24.115,1.447
			S63.674,94.39,73.561,67.134c8.202-20.5,25.325-24.118,25.325-24.118s13.028-4.615,27.738-2.894
			C139.683,41.645,154.606,49.525,154.606,49.525z"/>
		<path fill="#442236" d="M65.718,149.135c-15.313,0-20.627-12.205-21.314-18.732c-0.91-5.573,0.572-17.531,12.663-23.47
			c3.025-1.513,6.516-2.281,10.367-2.281c2.71,0,5.309,0.379,7.592,0.896c-1.021-1.573-2.065-3.404-3.023-5.489
			c-3.294-7.202-6.092-18.906-0.705-33.752c0.007-0.025,0.02-0.047,0.029-0.075c8.247-20.617,24.947-25.085,26.901-25.545
			c1.279-0.436,10.298-3.369,21.64-3.369c2.404,0,4.769,0.135,7.039,0.4c13.349,1.558,28.201,9.337,28.827,9.667
			c0.737,0.391,1.222,1.137,1.279,1.976c0.053,0.836-0.329,1.64-1.012,2.124c-1.898,1.354-5.08,4.371-5.541,6.699
			c-0.456,2.316,2.396,5.826,3.851,7.164c0.883,0.816,1.034,2.161,0.351,3.149c-0.032,0.045-3.397,5.062-1.359,8.961
			c1.768,2.546,7.854,3.564,10.556,3.657c1.137,0.038,2.093,0.867,2.291,1.988c0.011,0.039,1.031,5.055,4.241,5.512
			c0.066,0.009,0.133,0.023,0.199,0.038c0.268,0.062,0.581,0.093,0.931,0.093c0,0,0,0,0.004,0c2.556,0,5.997-1.627,7.104-2.253
			c0.826-0.468,1.851-0.407,2.613,0.153c0.764,0.561,1.134,1.52,0.936,2.444l-2.773,13.062c2.08-0.688,4.706-1.289,7.523-1.289
			c5.761,0,10.613,2.526,14.026,7.31c0.021,0.029,0.034,0.055,0.053,0.082c6.145,9.416,5.291,17.604,3.485,22.817
			c-1.94,5.626-5.36,9.021-5.504,9.163c-0.029,0.031-0.05,0.049-0.08,0.075c-0.277,0.247-6.879,6.093-14.871,6.093
			c-1.674,0-3.311-0.261-4.859-0.771c-8.148-2.566-14.335-10.91-17.126-15.304c-5.03,4.539-17.999,14.356-36.548,14.945
			c-0.352,0.009-0.705,0.016-1.05,0.016c-14.154,0-26.356-8.686-31.355-12.818c-3.154,5.362-11.454,16.266-26.94,16.663
			C65.987,149.135,65.854,149.135,65.718,149.135z M67.436,109.477c-3.096,0-5.864,0.599-8.223,1.782
			c-12.011,5.897-10.059,18.296-10.038,18.421c0.011,0.055,0.016,0.107,0.022,0.162c0.06,0.583,1.716,14.474,16.523,14.474
			l0.34-0.003c17.033-0.434,24.033-16.458,24.102-16.618c0.31-0.731,0.967-1.266,1.744-1.419c0.777-0.157,1.585,0.077,2.155,0.633
			c0.138,0.135,14.203,13.562,30.383,13.562l0,0c0.298,0,0.601-0.006,0.901-0.015c21.556-0.683,35.299-15.462,35.433-15.613
			c0.529-0.583,1.314-0.868,2.092-0.768c0.78,0.1,1.463,0.577,1.826,1.271c0.068,0.129,6.833,12.826,15.955,15.702
			c1.091,0.358,2.222,0.535,3.384,0.535c5.832,0,11.085-4.374,11.607-4.822c0.828-0.846,10.699-11.423,1.349-25.82
			c-2.537-3.529-5.834-5.246-10.071-5.246c-5.085,0-9.591,2.568-9.641,2.594c-0.822,0.479-1.854,0.426-2.627-0.135
			c-0.769-0.561-1.139-1.521-0.94-2.45l2.765-13.032c-1.531,0.502-3.283,0.905-4.965,0.905c-0.004,0-0.004,0-0.004,0
			c-0.676,0-1.318-0.064-1.913-0.195c-4.729-0.73-6.854-5.035-7.708-7.57c-3.28-0.347-9.925-1.562-12.687-5.783
			c-0.031-0.052-0.063-0.107-0.094-0.164c-2.562-4.695-0.739-9.76,0.572-12.36c-1.853-2.091-4.767-6.146-3.956-10.244
			c0.555-2.801,2.656-5.387,4.505-7.187c-5.015-2.33-14.985-6.52-23.885-7.56c-2.086-0.242-4.265-0.367-6.479-0.367
			c-11.172,0-20.082,3.109-20.171,3.141c-0.1,0.035-0.204,0.064-0.308,0.085c-0.641,0.139-15.979,3.683-23.57,22.619
			c-9.185,25.382,7.839,40.584,8.014,40.734c0.916,0.797,1.096,2.153,0.42,3.162c-0.677,1.01-1.995,1.359-3.085,0.817
			C81.109,112.67,74.593,109.477,67.436,109.477z"/>
	</g>
	<path fill="#442236" d="M86.112,167.7c-0.502,0-8.5,1.81-14.478-0.473c-6.168-2.366-8.271-3.618-8.44-3.698
		c-4.903-2.332-2.719-7.279-1.688-8.121c1.03-0.845,3.458-3.137,6.752-0.726c0.015,0.01,3.378,3.139,6.27,4.823
		c4.833,2.821,11.521,3.375,11.589,3.375c0.002,0,0.002,0,0.003,0c1.329,0,2.408,1.074,2.41,2.406s-1.074,2.413-2.406,2.413
		C86.125,167.7,86.121,167.7,86.112,167.7z"/>
	<path fill="#442236" d="M173.015,165.429c-1.148,0-2.171-0.83-2.371-2.002c-0.226-1.311,0.653-2.56,1.966-2.788
		c0.099-0.019,5.007-0.153,9.093-2.661c2.408-1.471,4.904-4.973,6.028-6.509c0.801-1.068,2.01-1.767,4.255-1.131
		c1.283,0.359,5.417,4.466,1.371,8.044c-2.092,1.849-2.965,2.055-7.476,4.819c-4.914,3.018-12.207,2.147-12.452,2.188
		C173.291,165.415,173.154,165.429,173.015,165.429z"/>
	<path fill="#442236" d="M115.053,212.203c-1.327-0.604-2.212-1.224-2.386-2.429c-0.195-1.313,0.939-2.396,1.541-2.997
		c0,0,2.512-1.112,4.825-1.449c2.428-0.354,5.159,0.33,5.159,0.33l-0.213-16.458c-0.018-1.332,1.046-2.431,2.379-2.442
		c1.329-0.033,2.425,1.048,2.446,2.377l0.238,18.572c0.019,1.205,0.111,3.233-1.081,3.407c0,0-4.116,1.012-7.117,1.449
		C118.063,212.971,115.169,212.203,115.053,212.203z"/>
	<path fill="#442236" d="M139.883,210.508c-0.582-0.441-0.937-1.134-0.952-1.863l-0.489-20.937
		c-0.034-1.332,1.021-2.438,2.354-2.465c1.325-0.036,2.441,1.023,2.471,2.355l0.421,17.902c0,0,2.483-0.943,4.173-1.372
		c5.065-0.965,7.989,1.001,8.321,2.293c0.331,1.285-1.688,6.182-9.767,5.304C143.964,211.821,140.31,210.831,139.883,210.508z"/>
	<path fill="#442236" d="M125.421,161.194c-0.731,0-1.405-0.479-1.621-1.218c-0.069-0.23-1.826-5.847-7.905-5.847
		c-5.996,0-7.929,4.983-7.947,5.036c-0.326,0.875-1.296,1.319-2.171,0.989c-0.874-0.325-1.319-1.299-0.99-2.174
		c0.111-0.295,2.798-7.227,11.11-7.227c6.917,0,10.315,5.413,11.146,8.276c0.261,0.897-0.254,1.836-1.151,2.095
		C125.737,161.17,125.578,161.194,125.421,161.194z"/>
	<path fill="#442236" d="M137.484,161.191c-0.188,0-0.366-0.032-0.556-0.091c-0.879-0.305-1.348-1.263-1.043-2.14
		c0.13-0.387,3.311-9.454,10.067-10.295c0.033-0.007,0.074-0.012,0.111-0.012c3.086-0.181,5.579,0.604,7.398,2.319
		c2.794,2.639,2.828,6.503,2.828,6.665c0,0.932-0.753,1.689-1.691,1.689c-0.931,0-1.688-0.758-1.688-1.689
		c0-0.018-0.045-2.61-1.787-4.232c-1.104-1.027-2.722-1.499-4.811-1.388c-3.841,0.527-6.527,5.97-7.241,8.03
		C138.839,160.757,138.185,161.191,137.484,161.191z"/>
	<path fill="#442236" d="M125.495,173.816c-0.24-3.053,2.31-2.355,5.359-2.596l0,0c3.058-0.24,5.464-1.328,5.706,1.726l0.11,1.443
		c0.24,3.055-2.04,5.725-5.096,5.965l0,0c-3.056,0.24-5.725-2.045-5.963-5.097L125.495,173.816z"/>
	<g>
		<path fill="#81D340" d="M154.606,49.525c0,0-14.022-3.407-18.33,1.446c-6.03,5.789,1.201,17.85,1.201,17.85
			s-5.064,9.647,2.173,20.017c4.801,7.053,17.367,8.682,17.367,8.682s4.75,7.695,10.85,5.306c7.238-1.687,11.94-14.231,11.94-14.231
			s-5.862,3.312-9.77,2.412c-5.064-0.727-6.271-7.477-6.271-7.477s-9.606-0.333-12.544-4.822c-2.891-5.306,1.45-11.576,1.45-11.576
			s-5.449-5.014-4.581-9.405C148.917,53.562,154.606,49.525,154.606,49.525z"/>
		<path fill="#442236" d="M165.492,104.975c-4.736,0-8.247-4.215-9.455-5.899c-2.922-0.49-13.268-2.663-17.775-9.288
			c-6.535-9.363-3.802-18.144-2.667-20.889c-1.587-2.95-6.481-13.312-0.531-19.102c1.882-2.073,5.22-3.124,9.925-3.124
			c4.979,0,9.816,1.161,10.021,1.208c0.639,0.157,1.133,0.675,1.257,1.323c0.126,0.648-0.14,1.312-0.678,1.694
			c-1.434,1.018-5.271,4.291-5.834,7.149c-0.561,2.828,2.835,6.704,4.065,7.839c0.621,0.57,0.726,1.51,0.25,2.204
			c-0.037,0.051-3.673,5.445-1.389,9.748c2.055,3.038,8.736,3.921,11.15,4.005c0.793,0.028,1.463,0.606,1.598,1.391
			c0.013,0.052,1.068,5.564,4.85,6.103c0.045,0.007,0.094,0.016,0.14,0.027c0.325,0.073,0.693,0.111,1.094,0.111
			c2.713,0,6.309-1.696,7.462-2.348c0.618-0.352,1.392-0.273,1.93,0.187c0.535,0.462,0.731,1.21,0.484,1.874
			c-0.05,0.138-1.262,3.331-3.406,6.78c-2.97,4.781-6.204,7.63-9.615,8.472C167.431,104.797,166.462,104.975,165.492,104.975z
			 M144.988,50.05c-3.688,0-6.267,0.707-7.449,2.041c-0.029,0.034-0.057,0.066-0.094,0.097c-2.018,1.937-2.424,5.104-1.203,9.422
			c0.983,3.48,2.673,6.313,2.686,6.34c0.304,0.507,0.322,1.134,0.049,1.655c-0.189,0.356-4.467,8.911,2.057,18.268
			c4.323,6.349,16.083,7.959,16.199,7.972c0.504,0.065,0.95,0.358,1.218,0.79c0.031,0.044,3.14,4.965,7.037,4.965
			c0.588,0,1.181-0.114,1.764-0.346c0.076-0.029,0.152-0.055,0.232-0.073c3.686-0.859,6.927-5.482,8.938-9.265
			c-1.521,0.514-3.267,0.936-4.911,0.936c-0.632,0-1.231-0.062-1.782-0.182c-4.661-0.71-6.604-5.244-7.299-7.535
			c-2.958-0.265-9.889-1.323-12.62-5.506c-0.027-0.037-0.048-0.075-0.071-0.116c-2.56-4.695-0.428-9.828,0.812-12.124
			c-1.722-1.858-4.914-5.942-4.117-9.994c0.524-2.666,2.57-5.145,4.356-6.872C149.139,50.278,147.06,50.05,144.988,50.05z"/>
	</g>
	<path fill="#E8569B" d="M114.34,161.857c-2.868-0.981-6.07,0.252-7.225,2.443c-0.039,0.032-0.073,0.091-0.11,0.164
		c0,0-0.162,0.39-0.429,0.418c-0.228,0.026-0.298-0.045-0.484-0.294c-1.513-2.043-5.029-2.68-7.715-1.086
		c-2.688,1.597-3.183,5.396-1.56,8.021c1.531,2.484,6.773,5.769,9.552,7.396c0,0,0.748,0.544,1.704,0.442
		c0.004,0,0.005-0.006,0.009-0.006c0.004,0,0.008,0,0.013,0c0.948-0.095,1.574-0.779,1.574-0.779c2.388-2.162,6.851-6.45,7.841-9.19
		C118.56,166.483,117.298,162.866,114.34,161.857z"/>
	<path fill="#E8569B" d="M160.185,160.063c-2.807-1.146-6.072-0.096-7.352,2.021c-0.04,0.032-0.08,0.087-0.12,0.163
		c0,0-0.186,0.374-0.451,0.391c-0.228,0.011-0.295-0.066-0.47-0.325c-1.391-2.123-4.863-2.959-7.636-1.525
		c-2.773,1.438-3.489,5.202-2.025,7.915c1.389,2.565,6.427,6.148,9.112,7.939c0,0,0.719,0.58,1.668,0.535c0.008,0,0.012,0,0.014,0
		c0.007,0,0.009,0,0.018,0c0.955-0.043,1.616-0.687,1.616-0.687c2.508-2.019,7.209-6.045,8.354-8.728
		C164.127,164.921,163.076,161.239,160.185,160.063z"/>
	<g>
		<path fill="#D4323E" d="M103.778,96.075c0.448-0.333,0.909-0.659,1.383-0.964c5.524-3.577,12.712-5.067,12.712-5.067
			s0.089-6.693,2.485-12.3c0.354-0.833,0.768-1.633,1.203-2.404v-0.01c0,0,1.693-8.311-1.443-13.747
			c-6.513-10.853-16.296-7.038-19.538-3.133c-2.594,3.124-3.376,9.405-3.376,9.405s-6.075,1.193-9.889,5.067
			c-8.2,6.993-4.187,18.589,1.205,21.947C93.771,98.141,103.771,96.075,103.778,96.075z"/>
		<path fill="#442236" d="M96.993,98.405L96.993,98.405c-3.973,0-7.124-0.708-9.365-2.106c-3.593-2.237-6.256-7.107-6.631-12.119
			c-0.362-4.88,1.471-9.317,5.166-12.494c3.12-3.139,7.48-4.636,9.55-5.202c0.376-2.089,1.389-6.484,3.571-9.112
			c1.891-2.28,5.746-4.577,10.091-4.577c3.393,0,8.262,1.373,12.191,7.923c3.342,5.781,1.817,14.111,1.66,14.905
			c-0.031,0.194-0.099,0.386-0.195,0.553c-0.45,0.797-0.813,1.524-1.119,2.233c-2.237,5.239-2.346,11.596-2.346,11.66
			c-0.011,0.792-0.572,1.469-1.343,1.629c-0.069,0.014-6.957,1.476-12.141,4.829c-0.417,0.273-0.854,0.575-1.292,0.903
			c-0.195,0.146-0.418,0.246-0.655,0.295C104.101,97.731,100.832,98.405,96.993,98.405z M109.374,56.169
			c-3.232,0-6.15,1.741-7.495,3.361c-1.869,2.249-2.799,6.924-3.001,8.538c-0.089,0.723-0.634,1.309-1.349,1.447
			c-0.055,0.009-5.623,1.149-9.01,4.59c-0.034,0.034-0.073,0.069-0.107,0.1c-3.708,3.163-4.246,7.033-4.044,9.722
			c0.326,4.383,2.787,8.1,5.049,9.508c1.671,1.045,4.294,1.593,7.578,1.593c2.757,0,5.213-0.388,6.099-0.544
			c0.39-0.282,0.777-0.548,1.156-0.794c4.359-2.825,9.61-4.385,11.998-4.994c0.153-2.313,0.69-7.237,2.561-11.619
			c0.319-0.747,0.693-1.505,1.143-2.314c0.228-1.318,1.21-7.998-1.294-12.337C116.203,58.341,112.988,56.169,109.374,56.169z"/>
	</g>
	<path fill="#442236" d="M95.887,105.962c-0.326,0-0.658-0.095-0.945-0.291c-0.773-0.524-0.974-1.573-0.452-2.345
		c0.162-0.24,4.061-5.952,9.756-9.639c4.361-2.823,9.612-4.383,12-4.995c0.153-2.311,0.69-7.235,2.561-11.617
		c2.454-5.744,7.188-10.26,7.387-10.45c0.679-0.639,1.747-0.612,2.384,0.065c0.643,0.678,0.611,1.748-0.063,2.387
		c-0.042,0.039-4.429,4.241-6.602,9.325c-2.239,5.237-2.348,11.594-2.348,11.658c-0.011,0.792-0.572,1.469-1.345,1.631
		c-0.069,0.015-6.956,1.476-12.138,4.829c-5.102,3.3-8.76,8.645-8.793,8.695C96.958,105.704,96.427,105.962,95.887,105.962z"/>
	<path fill="#442236" d="M97.202,69.544c-0.389,0-0.779-0.134-1.097-0.408c-0.119-0.102-2.938-2.535-4.491-5.428
		c-1.401-2.615-1.407-5.625-1.407-5.75c0.004-0.93,0.761-1.681,1.691-1.681c0.001,0,0.003,0,0.007,0
		c0.932,0.003,1.684,0.762,1.68,1.694c0,0.019,0.014,2.292,1.006,4.138c1.254,2.339,3.689,4.439,3.711,4.462
		c0.708,0.605,0.788,1.671,0.18,2.379C98.153,69.345,97.677,69.544,97.202,69.544z"/>
	<path fill="#442236" d="M98.038,77.69c-1.365,0-2.366-0.188-2.47-0.207c-0.917-0.177-1.514-1.063-1.336-1.979
		c0.178-0.916,1.061-1.514,1.979-1.337c1.296,0.245,4.971,0.45,6.377-1.507c1.366-1.899,1.28-6.845,0.905-9.513
		c-0.129-0.923,0.514-1.776,1.437-1.907c0.922-0.131,1.774,0.512,1.907,1.437c0.119,0.842,1.09,8.34-1.503,11.954
		C103.491,77.186,100.273,77.689,98.038,77.69z"/>
	<g>
		<path fill="#B4A4B3" d="M60.347,128.436c-0.444,0-0.892-0.175-1.221-0.526l-4.583-4.824c-0.644-0.677-0.617-1.748,0.059-2.388
			c0.675-0.641,1.747-0.615,2.386,0.062l4.583,4.827c0.641,0.673,0.614,1.744-0.062,2.384
			C61.182,128.286,60.765,128.436,60.347,128.436z"/>
		<path fill="#78B93B" d="M87.841,67.66c-0.695,0-1.347-0.43-1.591-1.125l-2.652-7.478c-0.311-0.877,0.151-1.843,1.026-2.154
			c0.876-0.313,1.844,0.147,2.155,1.024l2.654,7.476c0.311,0.877-0.149,1.843-1.026,2.156C88.22,67.626,88.029,67.66,87.841,67.66z"
			/>
		<path fill="#F3832E" d="M78.677,78.996c-0.155,0-0.31-0.021-0.466-0.065c-0.896-0.257-1.414-1.193-1.161-2.087l1.93-6.755
			c0.258-0.896,1.194-1.414,2.089-1.158c0.899,0.255,1.415,1.19,1.161,2.086l-1.931,6.753
			C80.088,78.512,79.411,78.996,78.677,78.996z"/>
		<path fill="#78B93B" d="M79.399,92.258c-0.366,0-0.737-0.119-1.046-0.359l-4.582-3.618c-0.731-0.579-0.857-1.64-0.278-2.373
			c0.579-0.731,1.638-0.855,2.37-0.278l4.583,3.619c0.733,0.579,0.855,1.638,0.28,2.37C80.39,92.042,79.898,92.258,79.399,92.258z"
			/>
		<path fill="#B4A4B3" d="M90.979,118.31c-0.619,0-1.214-0.344-1.513-0.936c-0.417-0.832-0.079-1.847,0.755-2.264l5.306-2.65
			c0.832-0.421,1.846-0.082,2.265,0.751c0.418,0.832,0.078,1.85-0.752,2.264l-5.308,2.656
			C91.491,118.253,91.234,118.31,90.979,118.31z"/>
		<path fill="#EBE876" d="M87.599,105.525c-0.453,0-0.902-0.177-1.235-0.535l-3.377-3.619c-0.635-0.681-0.599-1.748,0.083-2.385
			c0.683-0.637,1.749-0.598,2.386,0.083l3.377,3.616c0.636,0.683,0.601,1.749-0.082,2.386
			C88.426,105.375,88.014,105.525,87.599,105.525z"/>
		<path fill="#29A5C5" d="M106.656,109.627c-0.45,0-0.899-0.178-1.232-0.532l-3.859-4.1c-0.638-0.679-0.607-1.746,0.073-2.386
			c0.679-0.639,1.746-0.608,2.388,0.072l3.857,4.101c0.641,0.679,0.608,1.746-0.073,2.386
			C107.484,109.475,107.069,109.627,106.656,109.627z"/>
		<path fill="#29A5C5" d="M97.971,127.472c-0.779,0-1.477-0.542-1.647-1.328c-0.198-0.91,0.38-1.811,1.291-2.01l5.548-1.203
			c0.91-0.199,1.811,0.382,2.008,1.292c0.198,0.908-0.379,1.807-1.291,2.004l-5.55,1.207
			C98.209,127.461,98.087,127.472,97.971,127.472z"/>
		<path fill="#F3832E" d="M109.791,126.025c-0.362,0-0.723-0.115-1.03-0.352l-5.308-4.103c-0.737-0.571-0.875-1.631-0.304-2.368
			c0.57-0.741,1.629-0.872,2.369-0.302l5.306,4.101c0.739,0.568,0.875,1.629,0.303,2.366
			C110.792,125.799,110.293,126.025,109.791,126.025z"/>
		<path fill="#EBE876" d="M117.75,126.025c-0.608,0-1.202-0.333-1.5-0.912c-0.427-0.826-0.107-1.846,0.719-2.275l6.512-3.378
			c0.83-0.428,1.847-0.105,2.277,0.723c0.428,0.825,0.105,1.844-0.723,2.273l-6.514,3.379
			C118.278,125.965,118.01,126.025,117.75,126.025z"/>
		<path fill="#B4A4B3" d="M130.534,126.508c-0.618,0-1.217-0.345-1.512-0.934c-0.419-0.832-0.08-1.848,0.754-2.264l6.75-3.38
			c0.832-0.417,1.85-0.077,2.265,0.757c0.421,0.832,0.082,1.849-0.752,2.264l-6.749,3.379
			C131.044,126.449,130.786,126.508,130.534,126.508z"/>
		<path fill="#78B93B" d="M130.774,136.639h-6.993c-0.934,0-1.689-0.755-1.689-1.689c0-0.936,0.755-1.691,1.689-1.691h6.993
			c0.933,0,1.688,0.756,1.688,1.691C132.461,135.881,131.707,136.639,130.774,136.639z"/>
		<path fill="#EBE876" d="M148.861,128.436c-0.881,0-1.625-0.685-1.682-1.572l-0.484-7.239c-0.062-0.932,0.641-1.735,1.574-1.798
			c0.926-0.066,1.736,0.641,1.798,1.572l0.481,7.239c0.063,0.932-0.641,1.734-1.572,1.796
			C148.935,128.436,148.9,128.436,148.861,128.436z"/>
		<path fill="#F3832E" d="M158.75,119.753c-0.479,0-0.949-0.203-1.284-0.596l-4.1-4.819c-0.605-0.71-0.521-1.777,0.195-2.381
			c0.709-0.604,1.772-0.517,2.377,0.192l4.1,4.824c0.604,0.709,0.517,1.78-0.195,2.383
			C159.525,119.624,159.139,119.753,158.75,119.753z"/>
		<path fill="#78B93B" d="M162.371,111.073c-0.124,0-0.253-0.014-0.381-0.042l-3.136-0.727c-0.91-0.208-1.477-1.118-1.267-2.024
			c0.205-0.907,1.117-1.474,2.024-1.263l3.139,0.725c0.908,0.207,1.475,1.116,1.264,2.024
			C163.834,110.545,163.138,111.073,162.371,111.073z"/>
		<path fill="#9F9AA5" d="M172.496,118.792c-0.415,0-0.824-0.152-1.15-0.457l-3.858-3.618c-0.683-0.637-0.717-1.704-0.08-2.385
			c0.637-0.679,1.709-0.713,2.384-0.076l3.859,3.615c0.68,0.637,0.717,1.709,0.078,2.386
			C173.395,118.612,172.949,118.792,172.496,118.792z"/>
		<path fill="#29A5C5" d="M172.5,127.236c-0.529,0-1.055-0.256-1.385-0.726c-0.532-0.764-0.352-1.816,0.416-2.351l2.414-1.688
			c0.76-0.533,1.812-0.35,2.346,0.413c0.539,0.765,0.354,1.818-0.412,2.354l-2.413,1.688
			C173.175,127.134,172.836,127.236,172.5,127.236z"/>
		<path fill="#EBE876" d="M185.765,120.961c-0.297,0-0.593-0.078-0.872-0.238l-7.236-4.341c-0.799-0.479-1.058-1.517-0.579-2.317
			c0.484-0.801,1.518-1.059,2.313-0.579l7.239,4.339c0.803,0.48,1.059,1.518,0.58,2.317
			C186.895,120.67,186.337,120.961,185.765,120.961z"/>
		<path fill="#F3832E" d="M191.555,116.382c-0.073,0-0.146-0.009-0.22-0.017l-5.548-0.725c-0.927-0.12-1.582-0.968-1.459-1.893
			c0.119-0.926,0.971-1.576,1.892-1.456l5.552,0.725c0.923,0.12,1.577,0.968,1.454,1.893
			C193.116,115.76,192.39,116.382,191.555,116.382z"/>
		<path fill="#78B93B" d="M186.972,126.508c-0.508,0-1.011-0.229-1.342-0.663c-0.569-0.742-0.426-1.798,0.313-2.368l4.101-3.136
			c0.739-0.568,1.799-0.422,2.364,0.315c0.57,0.741,0.426,1.8-0.313,2.368l-4.097,3.137
			C187.687,126.396,187.329,126.508,186.972,126.508z"/>
		<path fill="#B4A4B3" d="M191.07,133.02c-0.536,0-1.068-0.258-1.396-0.734c-0.526-0.772-0.332-1.824,0.438-2.345l4.581-3.138
			c0.772-0.524,1.823-0.33,2.35,0.44c0.528,0.769,0.331,1.818-0.437,2.347l-4.581,3.134
			C191.733,132.924,191.397,133.02,191.07,133.02z"/>
		<path fill="#F3832E" d="M177.563,134.707c-0.657,0-1.277-0.386-1.551-1.024c-0.367-0.855,0.029-1.85,0.883-2.217l5.067-2.17
			c0.857-0.364,1.851,0.033,2.219,0.885c0.363,0.859-0.035,1.853-0.889,2.219l-5.067,2.171
			C178.007,134.664,177.787,134.707,177.563,134.707z"/>
		<path fill="#B4A4B3" d="M141.385,108.181c-0.839,0-1.567-0.625-1.673-1.48c-0.114-0.926,0.541-1.769,1.465-1.886l5.79-0.724
			c0.927-0.111,1.766,0.542,1.884,1.467c0.114,0.925-0.54,1.77-1.465,1.886l-5.788,0.724
			C141.526,108.173,141.452,108.181,141.385,108.181z"/>
		<path fill="#29A5C5" d="M133.426,113.967c-0.574,0-1.133-0.293-1.45-0.819c-0.481-0.801-0.222-1.838,0.581-2.315l3.617-2.173
			c0.801-0.481,1.835-0.223,2.311,0.579c0.483,0.801,0.223,1.838-0.576,2.315l-3.618,2.173
			C134.022,113.89,133.728,113.967,133.426,113.967z"/>
		<path fill="#F3832E" d="M126.189,107.938c-0.509,0-1.019-0.233-1.348-0.677c-0.559-0.745-0.41-1.8,0.336-2.364l4.825-3.617
			c0.744-0.559,1.801-0.409,2.364,0.339c0.56,0.746,0.41,1.802-0.34,2.362l-4.824,3.619
			C126.9,107.826,126.545,107.938,126.189,107.938z"/>
		<path fill="#78B93B" d="M121.125,99.257c-0.392,0-0.79-0.139-1.11-0.419c-0.701-0.613-0.772-1.682-0.158-2.382l3.376-3.857
			c0.615-0.702,1.68-0.775,2.383-0.16c0.703,0.612,0.774,1.678,0.158,2.381l-3.378,3.86
			C122.062,99.06,121.592,99.257,121.125,99.257z"/>
		<path fill="#EBE876" d="M139.455,99.497c-0.296,0-0.603-0.08-0.873-0.248l-5.554-3.378c-0.799-0.484-1.046-1.523-0.561-2.319
			c0.486-0.797,1.523-1.048,2.315-0.564l5.548,3.378c0.803,0.484,1.052,1.521,0.562,2.319
			C140.58,99.206,140.023,99.497,139.455,99.497z"/>
		<path fill="#CCB0A4" d="M128.604,86.954c-0.515,0-1.028-0.237-1.357-0.688l-3.38-4.583c-0.552-0.749-0.394-1.809,0.356-2.361
			c0.75-0.554,1.807-0.394,2.365,0.355l3.377,4.583c0.552,0.75,0.393,1.809-0.358,2.363
			C129.303,86.848,128.953,86.954,128.604,86.954z"/>
		<path fill="#78B93B" d="M129.809,74.172c-0.566,0-1.119-0.286-1.438-0.804c-0.487-0.794-0.241-1.833,0.556-2.322l3.137-1.932
			c0.793-0.487,1.83-0.242,2.32,0.555c0.486,0.794,0.237,1.832-0.557,2.321l-3.139,1.932
			C130.417,74.092,130.108,74.172,129.809,74.172z"/>
		<path fill="#29A5C5" d="M127.883,61.388c-0.071,0-0.142-0.005-0.215-0.013c-0.923-0.116-1.579-0.96-1.463-1.885l0.485-3.86
			c0.115-0.924,0.963-1.579,1.886-1.467c0.925,0.114,1.583,0.96,1.462,1.885l-0.482,3.857
			C129.448,60.763,128.72,61.388,127.883,61.388z"/>
		<path fill="#F3832E" d="M124.989,52.224c-0.546,0-1.082-0.265-1.411-0.751c-0.517-0.777-0.306-1.825,0.47-2.341l4.34-2.893
			c0.774-0.518,1.825-0.308,2.344,0.468c0.514,0.775,0.308,1.823-0.472,2.34l-4.341,2.894
			C125.634,52.132,125.307,52.224,124.989,52.224z"/>
		<path fill="#EBE876" d="M111.716,49.572c-0.808,0-1.52-0.582-1.664-1.402c-0.16-0.919,0.458-1.793,1.377-1.949l6.993-1.206
			c0.917-0.158,1.791,0.456,1.949,1.377c0.159,0.918-0.457,1.792-1.378,1.949L112,49.547
			C111.909,49.562,111.812,49.572,111.716,49.572z"/>
		<path fill="#B4A4B3" d="M97.972,53.912c-0.224,0-0.45-0.044-0.664-0.136c-0.855-0.367-1.254-1.359-0.885-2.216l1.445-3.377
			c0.366-0.859,1.359-1.254,2.217-0.887c0.859,0.368,1.254,1.359,0.886,2.217l-1.445,3.376
			C99.25,53.527,98.624,53.912,97.972,53.912z"/>
		<path fill="#78B93B" d="M84.467,130.364c-0.045,0-0.091,0-0.136-0.005l-6.032-0.48c-0.929-0.076-1.62-0.889-1.545-1.819
			c0.072-0.931,0.886-1.621,1.816-1.551l6.032,0.487c0.93,0.075,1.625,0.884,1.549,1.816
			C86.078,129.695,85.339,130.364,84.467,130.364z"/>
		<path fill="#EBE876" d="M63.484,137.842c-0.522,0-1.039-0.242-1.369-0.697c-0.548-0.758-0.378-1.812,0.377-2.361l6.995-5.061
			c0.754-0.551,1.808-0.379,2.357,0.374c0.546,0.754,0.38,1.812-0.376,2.359l-6.995,5.063
			C64.174,137.737,63.829,137.842,63.484,137.842z"/>
		<path fill="#29A5C5" d="M75.543,138.567c-0.639,0-1.249-0.361-1.536-0.981c-0.39-0.848-0.021-1.853,0.826-2.242l3.134-1.446
			c0.846-0.39,1.85-0.024,2.242,0.824c0.391,0.847,0.022,1.851-0.826,2.242l-3.134,1.447
			C76.018,138.517,75.778,138.567,75.543,138.567z"/>
		<path fill="#AEAAAB" d="M117.025,110.108c-0.402,0-0.805-0.144-1.125-0.429l-4.581-4.099c-0.693-0.623-0.751-1.689-0.131-2.384
			c0.621-0.693,1.691-0.75,2.384-0.131l4.581,4.101c0.697,0.621,0.754,1.69,0.133,2.384
			C117.95,109.919,117.488,110.108,117.025,110.108z"/>
		<path fill="#F3832E" d="M68.304,121.924c-0.787,0-1.491-0.553-1.655-1.357c-0.182-0.914,0.413-1.802,1.324-1.984l7.236-1.449
			c0.916-0.182,1.802,0.411,1.986,1.325c0.184,0.917-0.411,1.806-1.323,1.985l-7.233,1.447
			C68.524,121.917,68.414,121.924,68.304,121.924z"/>
	</g>
</g>
</svg>
